<svg xmlns="http://www.w3.org/2000/svg" width="449.679" height="438.487" viewBox="0 0 449.679 438.487">
    <defs>
        <clipPath id="prefix__clip-path">
            <path id="prefix__Path_175" d="M558.243 296.086l-16.013 12.838-2.15 8.247-8.791 33.771c-1.707.253-3.82.443-6.223.582a.342.342 0 0 0-.075.013c-17.316 1.074-49.885-.089-59.726-.468-1.846-.076-2.9-.126-2.9-.126 2.264-6.476 7.614-20.2 7.956-21.06a.1.1 0 0 0 .013-.038s-8.437-8.613-10.549-15.469c-.683-2.213.43-6.3 2.251-10.8a173.267 173.267 0 0 1 10.752-20.831L457.12 300.4l-9.688-6.247 1.277-6.957L453 263.845l.468-2.567 29.6 6.855a2.076 2.076 0 0 1 2.227-2.467c2.631-.088 7.956 3.125 7.956 3.125l-.746 2.441s3.921 6.69 13.243 5.4 16.152-10.08 16.152-10.08 2.492-2.112 4.161-2.112 1.939 2.985 1.939 2.985 3.781-4.831 5.1-4.388 1.416 3.162 1.416 3.162l13.888-3.187.443 1.467 7.93 26.687z" class="prefix__cls-1" data-name="Path 175" transform="translate(-447.432 -261.278)"/>
        </clipPath>
        <clipPath id="prefix__clip-path-2">
            <path id="prefix__Path_205" d="M641.02 355.189l-1.53.139-1.606-18.728s-6.754 34.315 1.29 51.112l-1.29 8.778c6.135 2.289-.683 6.678.544 12.661l6.691 21.439c-33.29 11.612-83.453-4.92-83.453-4.92 1.758-27.889 9.144-113.683 9.144-113.683l-11.965-25.372 3.036-5.565 16.19-29.775 18.758 8.9a23.429 23.429 0 0 1 3.048 0c1.517.115 3.276 4.453 3.276 4.453s1.872-2.695 2.82-2.34 4.212 6.324 4.212 6.324a24.908 24.908 0 0 0-1.5 5.6c-.646 4.427-.115 10.232 6.2 12.4 10.776 3.693 28.13-8.436 28.13-8.436s14.937 16.7 23.2 24.082 4.224 10.548 4.224 10.548c5.451 1.4 0 5.97 0 5.97v33.708l-3.516.329z" class="prefix__cls-1" data-name="Path 205" transform="translate(-558.844 -251.271)"/>
        </clipPath>
        <style>
            .prefix__cls-1{fill:none}.prefix__cls-3{fill:#5d7bd1}.prefix__cls-4{fill:#de5670}.prefix__cls-6{fill:#edba3b}.prefix__cls-7{fill:#ffac92}.prefix__cls-8{fill:#ed7858}.prefix__cls-9{fill:#fff}.prefix__cls-11{fill:#b65635}.prefix__cls-12{fill:#8e321a}.prefix__cls-14{fill:#cdddf7}.prefix__cls-15{fill:#e9a457}.prefix__cls-16{fill:#e08327}
        </style>
    </defs>
    <g id="prefix__Group_35" data-name="Group 35" transform="translate(-269.244 -80.695)">
        <g id="prefix__Group_22" data-name="Group 22" transform="translate(287.531 128.091)">
            <path id="prefix__Path_123" fill="#f7dc86" d="M711.8 195.33c5.616 24.525-1.107 49.815-5.1 74.032a355.381 355.381 0 0 0-3.538 81.769c1.5 22.3 4.026 45.464-1.953 67.351a72.08 72.08 0 0 1-15.316 28.875 82.373 82.373 0 0 1-27.98 20.034c-22.44 10.136-47.312 12.135-71.628 11.22-26.583-1-53.2-4.793-79.821-2.448-27.779 2.454-53.745 14.424-81.586 16.32a132.067 132.067 0 0 1-64.2-12.242c-43.413-20.159-76.477-65.725-72.2-114.947 2.015-23.13 12.342-45.079 29.849-60.494 10.193-8.963 21.959-15.832 33.24-23.294 11.175-7.4 21.534-15.7 30.328-25.856a224.964 224.964 0 0 0 17.557-31.688c5.426-11.91 10.408-24.066 16.828-35.5a116.5 116.5 0 0 1 23.516-29.808c40.1-36.151 96.818-40.743 148.106-35.014 25.808 2.887 52.69 6.694 76.393 17.821 22.468 10.555 41.834 29.039 47.505 53.869z" data-name="Path 123" transform="translate(-284.531 -121.586)"/>
            <path id="prefix__Path_124" d="M426.45 201.48L417 184.6c-.728-1.3-2.615.048-1.892 1.34l9.449 16.878c.728 1.301 2.616-.046 1.893-1.338z" data-name="Path 124" transform="translate(-264.351 -111.644)"/>
            <path id="prefix__Path_125" d="M421.221 208.963l-16.039-8.512c-1.321-.7-2.305 1.4-.991 2.1l16.039 8.514c1.321.696 2.305-1.404.991-2.102z" data-name="Path 125" transform="translate(-266.161 -109.061)"/>
            <path id="prefix__Path_126" d="M418.746 216.58l-14.132 2.8a1.194 1.194 0 0 0-1.054 1.256 1.167 1.167 0 0 0 1.255 1.054l14.133-2.8a1.194 1.194 0 0 0 1.052-1.256 1.166 1.166 0 0 0-1.254-1.054z" data-name="Path 126" transform="translate(-266.163 -106.475)"/>
            <path id="prefix__Path_127" d="M643.787 136.809a3.486 3.486 0 0 0-1.025-1.451l-.645-.644a3.578 3.578 0 0 0-4.9.429l-.48.749a3.449 3.449 0 0 0-.32 1.79l.2.91a3.475 3.475 0 0 0 1.025 1.451l.645.644a3.578 3.578 0 0 0 4.9-.429l.48-.749a3.462 3.462 0 0 0 .32-1.79c-.064-.303-.133-.606-.2-.91z" class="prefix__cls-3" data-name="Path 127" transform="translate(-229.119 -119.628)"/>
            <path id="prefix__Path_128" d="M612.321 170.606c-4.475 0-3.842 6.928.606 6.928 4.473 0 3.842-6.928-.606-6.928z" class="prefix__cls-3" data-name="Path 128" transform="translate(-233.437 -113.787)"/>
            <path id="prefix__Path_129" d="M538.986 349.077h-.4c-4.475 0-3.842 6.928.605 6.928h.4c4.475-.005 3.843-6.928-.605-6.928z" class="prefix__cls-3" data-name="Path 129" transform="translate(-245.168 -85.394)"/>
            <path id="prefix__Path_130" d="M357.124 390.776c-4.475 0-3.842 6.928.606 6.928 4.47-.004 3.843-6.928-.606-6.928z" class="prefix__cls-3" data-name="Path 130" transform="translate(-274.037 -78.76)"/>
            <path id="prefix__Path_131" d="M318.237 422.1a3.577 3.577 0 0 0-3.352-1.852l-.91.2a3.486 3.486 0 0 0-1.451 1.025l-.48.749a3.45 3.45 0 0 0-.32 1.79v.644a3.571 3.571 0 0 0 3.767 3.161l.91-.2a3.476 3.476 0 0 0 1.451-1.025l.48-.749a3.45 3.45 0 0 0 .32-1.79v-.644a2.618 2.618 0 0 0-.415-1.309z" class="prefix__cls-3" data-name="Path 131" transform="translate(-280.775 -74.075)"/>
            <path id="prefix__Path_132" d="M293.049 386.444a3.693 3.693 0 0 0-1.772-1.931l-1.289-.644a3.476 3.476 0 0 0-4.631 1.658 3.509 3.509 0 0 0-.116 2.7 3.7 3.7 0 0 0 1.773 1.931q.643.323 1.289.644a3.476 3.476 0 0 0 4.631-1.657 3.508 3.508 0 0 0 .115-2.701z" class="prefix__cls-3" data-name="Path 132" transform="translate(-285.021 -79.91)"/>
            <path id="prefix__Path_133" d="M336.521 400.792a2.382 2.382 0 0 0-2.235-1.234l-.607.136a2.323 2.323 0 0 0-.967.684l-.32.5a2.3 2.3 0 0 0-.214 1.194v.644a1.753 1.753 0 0 0 .277.872 2.387 2.387 0 0 0 2.235 1.236l.607-.137a2.311 2.311 0 0 0 .967-.683l.32-.5a2.3 2.3 0 0 0 .213-1.193v-.644a1.747 1.747 0 0 0-.276-.875z" class="prefix__cls-4" data-name="Path 133" transform="translate(-277.52 -77.365)"/>
            <path id="prefix__Path_134" d="M336.055 431.372a1.738 1.738 0 0 0-.544-.7l-.5-.32a2.312 2.312 0 0 0-1.193-.213l-.607.137a2.31 2.31 0 0 0-.967.683l-.645.644a2.383 2.383 0 0 0 .285 3.265l.5.321a2.309 2.309 0 0 0 1.193.213l.607-.137a2.311 2.311 0 0 0 .967-.683l.644-.644a2.244 2.244 0 0 0 .257-2.564z" class="prefix__cls-4" data-name="Path 134" transform="translate(-277.698 -72.499)"/>
            <path id="prefix__Path_135" d="M613.074 159.849a2.322 2.322 0 0 0-.683-.967c-.216-.214-.43-.43-.645-.644a2.384 2.384 0 0 0-3.266.285l-.32.5a2.3 2.3 0 0 0-.213 1.193l.136.607a2.323 2.323 0 0 0 .684.967l.644.644a2.38 2.38 0 0 0 3.265-.286l.321-.5a2.31 2.31 0 0 0 .213-1.193l-.136-.606z" class="prefix__cls-4" data-name="Path 135" transform="translate(-233.648 -115.842)"/>
            <path id="prefix__Path_136" d="M630.615 180.5c-2.982 0-2.562 4.619.4 4.619 2.985-.002 2.566-4.619-.4-4.619z" class="prefix__cls-4" data-name="Path 136" transform="translate(-230.365 -112.213)"/>
            <path id="prefix__Path_137" d="M654.523 157.147c-2.984 0-2.562 4.618.4 4.618 2.987 0 2.565-4.618-.4-4.618z" class="prefix__cls-4" data-name="Path 137" transform="translate(-226.561 -115.928)"/>
            <path id="prefix__Path_138" d="M626.188 130.029a2.086 2.086 0 0 0-1.327-1.114 1.747 1.747 0 0 0-.906-.122l-.607.137a2.31 2.31 0 0 0-.967.683l-.321.5a2.309 2.309 0 0 0-.213 1.193v.644a1.761 1.761 0 0 0 .277.873 2.38 2.38 0 0 0 2.235 1.234l.607-.136a2.323 2.323 0 0 0 .967-.684l.32-.5a2.3 2.3 0 0 0 .213-1.194v-.643a1.731 1.731 0 0 0-.278-.871z" class="prefix__cls-4" data-name="Path 138" transform="translate(-231.437 -120.441)"/>
            <path id="prefix__Path_139" d="M392.349 177a2.306 2.306 0 0 0-.683-.968l-.5-.32a2.308 2.308 0 0 0-1.193-.213h-.645a2.381 2.381 0 0 0-2.107 2.512l.136.606a2.326 2.326 0 0 0 .684.968l.5.32a2.315 2.315 0 0 0 1.194.213h.644a2.581 2.581 0 0 0 1.573-.819 1.721 1.721 0 0 0 .413-.785 1.75 1.75 0 0 0 .122-.908z" class="prefix__cls-4" data-name="Path 139" transform="translate(-268.764 -113.01)"/>
            <path id="prefix__Path_140" d="M404.33 159.927c-2.983 0-2.562 4.618.4 4.618 2.987 0 2.565-4.618-.4-4.618z" class="prefix__cls-4" data-name="Path 140" transform="translate(-266.365 -115.486)"/>
            <path id="prefix__Path_141" d="M392.349 156.98a2.31 2.31 0 0 0-.683-.967l-.5-.32a2.3 2.3 0 0 0-1.193-.213h-.645a2.381 2.381 0 0 0-2.107 2.511l.136.607a2.323 2.323 0 0 0 .684.967l.5.32a2.3 2.3 0 0 0 1.194.213h.644a2.385 2.385 0 0 0 2.107-2.511z" class="prefix__cls-4" data-name="Path 141" transform="translate(-268.764 -116.195)"/>
            <path id="prefix__Path_142" d="M543.326 335.618c-2.984 0-2.562 4.618.4 4.618 2.987 0 2.565-4.618-.4-4.618z" class="prefix__cls-4" data-name="Path 142" transform="translate(-244.252 -87.535)"/>
            <path id="prefix__Path_143" d="M555.557 340.622c-2.982 0-2.56 4.618.4 4.618 2.988 0 2.566-4.618-.4-4.618z" class="prefix__cls-4" data-name="Path 143" transform="translate(-242.306 -86.739)"/>
        </g>
        <g id="prefix__Group_26" data-name="Group 26" transform="translate(431.536 109.104)">
            <path id="prefix__Path_144" fill="#f9edc7" d="M434.172 224.266l179.139-19.66-2.3-99.4-191.911 11.72z" data-name="Path 144" transform="translate(-407.696 -105.205)"/>
            <g id="prefix__Group_25" data-name="Group 25" transform="translate(0 93.201)">
                <path id="prefix__Path_145" d="M595.663 295.552c-1.026 3.575-4.745 5.523-8.009 7.315-4.238 2.341-8.31 5.181-11.2 9.066-3.294 4.424-5.408 10.464-10.6 12.288-3.772 1.316-7.968-.093-11.863.7a15.825 15.825 0 0 0-3.688 1.326 32.424 32.424 0 0 1-3.461 2.176c-4.475 2.4-10.185 3.772-14.744.8-4.2-2.734-5.75-7.966-6.621-12.629a67.85 67.85 0 0 0-1.761-8.371 16.613 16.613 0 0 0-3.9-6.652c-3.3-3.367-7.626-5.471-11.387-8.247a22.767 22.767 0 0 1-5.056-4.911 19.811 19.811 0 0 1-3.109-7.191c-1.108-4.922-.673-9.864-.021-14.8.86-6.734 2.135-13.469.415-20.151a29.085 29.085 0 0 0-16.556-19.283 32.024 32.024 0 0 0-3.824 7.875c-1.574-2.756-3.16-5.574-3.709-8.693-.539-3.149.2-6.724 2.653-8.765 2.807-2.331 6.848-2.083 10.381-2.994 3.627-.954 6.776-3.191 10.216-4.714a22.761 22.761 0 0 1 16.764-1.026c5.119 1.855 9.231 5.9 12.081 10.536s4.578 9.874 6.082 15.117c1.689 5.853 3.626 12.434 9 15.324.176.093.363.166.539.248 1.336.094 2.673.1 3.958.145a26.089 26.089 0 0 1 6.144.715 14.147 14.147 0 0 1 5.035 2.6c2.983 2.362 5.3 5.47 8.651 7.366 3.554 2.01 7.6 2.933 11.086 5.056a15.316 15.316 0 0 1 4.217 3.73l.2.125c3.14 1.305 3.181 5.594 4.279 8.807 1.047 3.055 3.388 5.459 5.274 8.092s3.435 5.913 2.534 9.02z" data-name="Path 145" transform="translate(-398.578 -182.127)"/>
                <path id="prefix__Path_146" d="M558.243 296.086l-16.013 12.838-2.15 8.247-8.791 33.771c-1.707.253-3.82.443-6.223.582a.342.342 0 0 0-.075.013c-17.316 1.074-49.885-.089-59.726-.468-1.846-.076-2.9-.126-2.9-.126 2.264-6.476 7.614-20.2 7.956-21.06a.1.1 0 0 0 .013-.038s-8.437-8.613-10.549-15.469c-.683-2.213.43-6.3 2.251-10.8a173.267 173.267 0 0 1 10.752-20.831L457.12 300.4l-9.688-6.247 1.277-6.957L453 263.845l.468-2.567 29.6 6.855a2.076 2.076 0 0 1 2.227-2.467c2.631-.088 7.956 3.125 7.956 3.125l-.746 2.441s3.921 6.69 13.243 5.4 16.152-10.08 16.152-10.08 2.492-2.112 4.161-2.112 1.939 2.985 1.939 2.985 3.781-4.831 5.1-4.388 1.416 3.162 1.416 3.162l13.888-3.187.443 1.467 7.93 26.687z" class="prefix__cls-6" data-name="Path 146" transform="translate(-403.188 -173.576)"/>
                <path id="prefix__Path_147" d="M553.528 259.466l-14.1-48.734s-10.549-5.186-10.194-7.564.177-15.645 2.985-17.4 4.4 12.483 4.4 12.483l11.6-1.593s1.67 5.629 1.581 7.563c0 0 27.435 58.461 26.194 65.936a8.279 8.279 0 0 1-1.2 2.719c-5.363 8.651-26.574 26.612-31.026 30.33l-7.93-26.687 20.123-8.651z" class="prefix__cls-7" data-name="Path 147" transform="translate(-390.176 -185.613)"/>
                <path id="prefix__Path_148" d="M556.839 475.885h-29.888l-30.584-80.443-40.107-15.975c.961-7.842 2.251-15.874 3.655-23.475 0 0 25.4 7.462 74.878-3.15 7.841 10.258 16.911 24.463 18.176 36.617 2.289 21.983 3.87 86.426 3.87 86.426z" class="prefix__cls-4" data-name="Path 148" transform="translate(-401.784 -159.009)"/>
                <path id="prefix__Path_149" d="M491.819 264.912c-9.246.8-14.217-6.943-13.6-21.274a36.28 36.28 0 0 1 1.784-9.993 30.806 30.806 0 0 1 15.911-18.428c-.341 11.484 17.354 23.387 17.354 23.387 1.808-4.807 8.727-5.16 8.791.7a8.681 8.681 0 0 1-5.047 7.969v26.607s-6.855 8.791-16.165 10.081-13.243-5.4-13.243-5.4l.746-2.441 1.125-3.643c12.357-1.619 19.453-15.482 19.453-15.482-6.674 4.97-12.428 7.538-17.109 7.917z" class="prefix__cls-7" data-name="Path 149" transform="translate(-398.298 -180.904)"/>
                <path id="prefix__Path_150" d="M523.161 339.137l-.759 1.872a178.174 178.174 0 0 1 11.89 14.013c-49.48 10.613-74.879 3.15-74.879 3.15.886-4.82 1.809-9.474 2.719-13.8 23.716 1.987 59.03-4.844 60.953-5.223a.342.342 0 0 1 .076-.012z" class="prefix__cls-7" data-name="Path 150" transform="translate(-401.282 -161.189)"/>
                <path id="prefix__Path_151" d="M462.986 338.744c9.841.379 42.41 1.543 59.726.468-1.923.379-37.237 7.21-60.953 5.223.418-1.973.823-3.87 1.227-5.691z" data-name="Path 151" transform="translate(-400.909 -161.251)"/>
                <path id="prefix__Path_152" d="M507.38 251.26s-7.1 13.863-19.453 15.482l2.34-7.564c4.679-.378 10.433-2.947 17.113-7.918z" data-name="Path 152" transform="translate(-396.746 -175.169)"/>
                <path id="prefix__Path_153" d="M496.588 390.564l-2.112 80.443h-33.05s-4.048-34.2-6.337-66.732a134.588 134.588 0 0 1 .468-20.769z" class="prefix__cls-4" data-name="Path 153" transform="translate(-402.005 -154.13)"/>
                <path id="prefix__Path_154" d="M496.494 391.788l-41.031-7.058c.24-2.922.556-5.907.924-8.917z" data-name="Path 154" transform="translate(-401.91 -155.354)"/>
                <path id="prefix__Path_155" d="M455.79 297.452l15.672-17.652a173.275 173.275 0 0 0-10.752 20.831z" data-name="Path 155" transform="translate(-401.858 -170.63)"/>
                <path id="prefix__Path_156" d="M456.764 207.649l9.1-1s-10.194 13.631-16.873 15.743l-17.4 42.018 27.484 9.954-4.288 23.349c-10.2-3.693-45.458-17.252-45.521-27.852-.089-12.4 30.76-52.212 30.76-52.212s1.846-10.46 8.968-10.725c0 0 5.451-11.523 8.26-11.776s-.49 12.501-.49 12.501z" class="prefix__cls-7" data-name="Path 156" transform="translate(-409.261 -184.097)"/>
                <circle id="prefix__Ellipse_1" cx="4.776" cy="4.776" r="4.776" class="prefix__cls-8" data-name="Ellipse 1" transform="translate(99.649 62.205)"/>
                <path id="prefix__Path_157" d="M491.868 236.338a11.65 11.65 0 0 1-2.541 5.5 10.19 10.19 0 0 1-6.5 3.443c-1.707.2-3.772-.252-4.434-1.574a1.17 1.17 0 0 1-.119-.863c.146-.48.689-.8 1.2-1.049a55.051 55.051 0 0 1 6.577-2.339 15.379 15.379 0 0 0 5.817-3.118z" class="prefix__cls-8" data-name="Path 157" transform="translate(-398.287 -177.543)"/>
                <path id="prefix__Path_158" d="M513.7 237.222a.649.649 0 0 0-.736.508.637.637 0 0 0 .508.736c.483.042-.38 1.539-.607 1.734-.765.655-1.081-.762-1.123-1.263a4.974 4.974 0 0 1 .566-2.751c.145-.272.389-.632.672-.714a.489.489 0 0 1 .283.015c.147.056.111.042.15.19a.638.638 0 0 0 .814.372.648.648 0 0 0 .372-.814 1.638 1.638 0 0 0-2.584-.657 4.766 4.766 0 0 0-1.494 3.08 4.123 4.123 0 0 0 .779 3.467 1.713 1.713 0 0 0 1.51.467 2.213 2.213 0 0 0 1.423-1.108 3.712 3.712 0 0 0 .647-1.861 1.4 1.4 0 0 0-1.18-1.401z" class="prefix__cls-8" data-name="Path 158" transform="translate(-393.163 -177.881)"/>
                <path id="prefix__Path_159" d="M486.618 230.034l-2.9-1.342a1.265 1.265 0 0 0-1.657.672 1.272 1.272 0 0 0-.007.968 1.354 1.354 0 0 0 .679.69l2.9 1.342a1.265 1.265 0 0 0 1.658-.672 1.273 1.273 0 0 0 .007-.968 1.35 1.35 0 0 0-.68-.69z" data-name="Path 159" transform="translate(-397.695 -178.775)"/>
                <path id="prefix__Path_160" d="M498.025 229.986a1.269 1.269 0 0 0-.654-.693 1.426 1.426 0 0 0-.983-.029l-3.586 1.02a1.274 1.274 0 0 0-.694.654 1.3 1.3 0 0 0-.029.983 1.281 1.281 0 0 0 .654.693 1.426 1.426 0 0 0 .983.029l3.587-1.02a1.268 1.268 0 0 0 .693-.654 1.29 1.29 0 0 0 .029-.983z" data-name="Path 160" transform="translate(-396.098 -178.68)"/>
                <ellipse id="prefix__Ellipse_3" cx="1.954" cy="2.458" data-name="Ellipse 3" rx="1.954" ry="2.458" transform="translate(84.095 54.084)"/>
                <ellipse id="prefix__Ellipse_4" cx="1.954" cy="2.458" data-name="Ellipse 4" rx="1.954" ry="2.458" transform="translate(97.207 55.121)"/>
                <path id="prefix__Path_161" d="M522.424 229.01l-2.1-4.888c-.558-1.3-1.041-2.739-2.312-3.505-.573-.345-1.01.6-.443.937a3.136 3.136 0 0 1 1.1 1.368c.32.655.588 1.338.875 2.006l1.907 4.443c.264.611 1.237.254.973-.361z" class="prefix__cls-9" data-name="Path 161" transform="translate(-392.071 -180.056)"/>
                <path id="prefix__Path_162" d="M522.741 231.49a.534.534 0 0 0-.561-.471.522.522 0 0 0-.472.561l.8 3.835a.534.534 0 0 0 .561.471.52.52 0 0 0 .471-.561z" class="prefix__cls-9" data-name="Path 162" transform="translate(-391.373 -178.39)"/>
                <path id="prefix__Path_163" d="M520.247 232.045a18.124 18.124 0 0 1-1.1-3.714.532.532 0 0 0-.561-.471.521.521 0 0 0-.471.561 19.359 19.359 0 0 0 1.156 3.984.518.518 0 1 0 .971-.361z" class="prefix__cls-9" data-name="Path 163" transform="translate(-391.943 -178.892)"/>
                <path id="prefix__Path_164" d="M572.1 275.416a.534.534 0 0 0-.729.064.521.521 0 0 0 .064.73 6.8 6.8 0 0 1 2.9 6.353c-.082.66.936.85 1.019.187a7.825 7.825 0 0 0-3.254-7.334z" class="prefix__cls-9" data-name="Path 164" transform="translate(-383.49 -171.344)"/>
                <path id="prefix__Path_165" d="M573.236 284.024a.528.528 0 0 0-.6.416 5.962 5.962 0 0 1-.875 1.885 5.747 5.747 0 0 1-1.546 1.5.518.518 0 1 0 .6.845 6.924 6.924 0 0 0 2.842-4.042.525.525 0 0 0-.421-.604z" class="prefix__cls-9" data-name="Path 165" transform="translate(-383.689 -169.958)"/>
                <path id="prefix__Path_166" d="M572.043 281.344a.518.518 0 1 0-1.032.09c.007.074.013.148.015.223v.217c0 .037-.008.074-.013.111-.008.066-.018.132-.031.2s-.031.146-.05.217l-.031.108-.008.02a3.5 3.5 0 0 1-.169.388c-.031.06-.065.117-.1.176l-.009.017-.063.092a3.16 3.16 0 0 1-.269.327l-.078.08c-.033.034-.035.035 0 0q-.082.075-.17.143a2.951 2.951 0 0 1-.371.247.52.52 0 0 0-.123.722.534.534 0 0 0 .722.124 3.684 3.684 0 0 0 1.78-3.502z" class="prefix__cls-9" data-name="Path 166" transform="translate(-383.777 -170.459)"/>
                <path id="prefix__Path_167" d="M533.271 309.326a3.963 3.963 0 0 1-1.97-4 .518.518 0 0 0-1.019-.188 5.028 5.028 0 0 0 2.545 5.129c.589.314 1.028-.625.444-.941z" class="prefix__cls-9" data-name="Path 167" transform="translate(-390.017 -166.664)"/>
                <path id="prefix__Path_168" d="M538 307.253h-.21l-.054-.006a2.967 2.967 0 0 1-.377-.059c-.059-.014-.117-.029-.176-.045h-.012l-.071-.025a3.016 3.016 0 0 1-.35-.154c-.053-.028-.107-.057-.159-.088l-.022-.013-.053-.036a3.1 3.1 0 0 1-.284-.224c-.05-.045-.1-.092-.146-.139l-.008-.008-.05-.058a3.09 3.09 0 0 1-.226-.309.522.522 0 0 0-.722-.123.529.529 0 0 0-.123.722 3.554 3.554 0 0 0 3.133 1.595.522.522 0 0 0 .471-.561.529.529 0 0 0-.561-.469z" class="prefix__cls-9" data-name="Path 168" transform="translate(-389.279 -166.481)"/>
                <g id="prefix__Group_24" data-name="Group 24" transform="translate(44.244 87.702)">
                    <g id="prefix__Group_23" clip-path="url(#prefix__clip-path)" data-name="Group 23">
                        <path id="prefix__Path_169" d="M486.023 258l-33.389 33.98-9.436 9.6c-.468.476.329 1.139.794.665l33.389-33.98 9.436-9.6c.468-.476-.329-1.139-.794-.665z" class="prefix__cls-9" data-name="Path 169" transform="translate(-448.128 -261.826)"/>
                        <path id="prefix__Path_170" d="M526.262 252.529l-30.621 25.889-30.423 25.723-17.188 14.53c-.5.428.089 1.278.6.846l30.621-25.889 30.423-25.721 17.187-14.532c.504-.427-.089-1.275-.599-.846z" class="prefix__cls-9" data-name="Path 170" transform="translate(-447.367 -262.689)"/>
                        <path id="prefix__Path_171" d="M553.829 250.793l-19.781 17.117q-9.889 8.559-19.781 17.117l-19.781 17.119-19.878 17.2-19.781 17.119-2.448 2.118c-.5.432.093 1.283.6.846q9.889-8.559 19.781-17.117l19.781-17.119q9.889-8.559 19.781-17.117l19.878-17.2 19.781-17.117 2.448-2.119c.498-.435-.095-1.285-.6-.847z" class="prefix__cls-9" data-name="Path 171" transform="translate(-446.675 -262.966)"/>
                        <path id="prefix__Path_172" d="M561.44 273.53l-41.907 29.507-41.908 29.507-23.494 16.541a.518.518 0 0 0 .6.845l41.907-29.506 41.908-29.507 23.494-16.541a.519.519 0 0 0-.6-.846z" class="prefix__cls-9" data-name="Path 172" transform="translate(-446.4 -259.344)"/>
                        <path id="prefix__Path_173" d="M557.146 300.179l-38.739 20.336q-19.368 10.169-38.738 20.336l-21.777 11.432c-.582.3-.228 1.281.362.971l38.739-20.336 38.738-20.336 21.777-11.432c.58-.304.228-1.28-.362-.971z" class="prefix__cls-9" data-name="Path 173" transform="translate(-445.815 -255.099)"/>
                        <path id="prefix__Path_174" d="M546.33 319.586l-24.372 11.962-24.373 11.962-13.695 6.72c-.592.291-.239 1.266.362.971l24.372-11.961L533 327.278l13.7-6.722c.584-.29.23-1.265-.37-.97z" class="prefix__cls-9" data-name="Path 174" transform="translate(-441.68 -252.01)"/>
                    </g>
                </g>
                <path id="prefix__Path_176" d="M510.132 321.359c-9.751-2.113-39.905 0-39.905 0s6.071-8.88 15.824-8.968 24.081 8.968 24.081 8.968z" data-name="Path 176" transform="translate(-399.562 -165.444)"/>
                <path id="prefix__Path_177" d="M539.521 427.047A260.733 260.733 0 0 0 529.143 382a257.092 257.092 0 0 0-9.369-24.421c-.269-.606-1.243-.25-.971.362q4.752 10.722 8.509 21.848a92.2 92.2 0 0 1-21.437-16.389c-.465-.479-1.127.319-.665.793a92.992 92.992 0 0 0 22.577 17.048q3.368 10.161 5.9 20.572a258.415 258.415 0 0 1 7.023 71.605c-.029.664 1 .567 1.032-.09a258.266 258.266 0 0 0-2.221-46.281z" class="prefix__cls-9" data-name="Path 177" transform="translate(-394.021 -158.305)"/>
                <path id="prefix__Path_284" d="M397.446 274.59c-3.313 1.011-8.112 2.011-11.332.743a.586.586 0 0 1 .408-1.1c3.046 1.2 7.664.036 10.792-.92.721-.213.845 1.059.132 1.277z" data-name="Path 284" transform="translate(-299.736 -199.293)"/>
            </g>
        </g>
        <g id="prefix__Group_31" data-name="Group 31" transform="translate(519.54 80.695)">
            <g id="prefix__Group_30" data-name="Group 30" transform="translate(29.283 60.35)">
                <path id="prefix__Path_178" d="M666.334 468.108h-44.091l-21.566-48.088-40.271-4.984c.556-7.854 1.012-13.306 1.012-13.306s50.163 16.532 83.453 4.92l9.815 28.092.3.886 2.086 5.97.316.9 1.265 3.642 1.037 2.948v.013z" class="prefix__cls-6" data-name="Path 178" transform="translate(-502.502 -89.971)"/>
                <path id="prefix__Path_179" d="M600.969 417.509l-1.757 48.091h-40.324c-.771-7.31-.037-24.158.873-39.045z" class="prefix__cls-6" data-name="Path 179" transform="translate(-502.795 -87.461)"/>
                <path id="prefix__Path_180" d="M609.749 230.324c-.366.7-1.214 2.315-2.225 4.617a5.871 5.871 0 0 1-6.413-5.2c-.152-2.58 1.467-5.16.8-7.665-.607-2.264-2.871-3.63-4.3-5.489a8.278 8.278 0 0 1-.7-8.917 7.592 7.592 0 0 1 8.082-3.592c2.695.632 4.882 2.82 7.627 3.149 2.366.291 4.756-.847 7.1-.366 3.731.758 5.464 5.109 8.664 7.171 2.264 1.467 5.085 1.669 7.779 1.707 2.821.026 5.932.013 8.031 1.9 2.593 2.327 2.417 6.412 4.06 9.473 1.771 3.276 5.629 5.325 6.527 8.942.747 2.972-.8 6.02-2.492 8.576s-3.68 5.148-3.933 8.2h-.089c-.1-3.568-2.694-4.137-5.654-3.985a12.458 12.458 0 0 0 1.249-5.845c-.064-1.973-.746-4.136-2.467-5.085a6.405 6.405 0 0 0-2.379-.657c-2.086-.265-4.211-.278-6.286-.7a9.11 9.11 0 0 1-5.451-2.96c-1.4-1.758-1.974-4.377-4.048-5.274-1.961-.86-4.148.328-6.148 1.087a15.436 15.436 0 0 1-7.334.913z" data-name="Path 180" transform="translate(-496.852 -121.444)"/>
                <path id="prefix__Path_181" d="M656.445 456.367a23.5 23.5 0 0 1-1.994 2.909 6.232 6.232 0 0 1-2.353 2.144 1.917 1.917 0 0 1-2.283-.892 2.43 2.43 0 0 1-.336-1.205 15.373 15.373 0 0 1-1.634 1.379 10.612 10.612 0 0 1-3.431 1.9 1.912 1.912 0 0 1-2.48-1.287 2.07 2.07 0 0 1-.035-.881c-.209.116-.417.243-.626.348a6.181 6.181 0 0 1-2.747.846 1.524 1.524 0 0 1-1.472-1.368 2.6 2.6 0 0 1 1.066-2.109 15.424 15.424 0 0 0 4.289-7.175l-.278.661a8.178 8.178 0 0 1-1.576 3.037 1.941 1.941 0 0 1-2.144.394 2.054 2.054 0 0 1-.939-1.808 17.013 17.013 0 0 1 .3-3.06q.226-1.652.556-3.269c.371-1.8.834-3.57 1.368-5.32a29.385 29.385 0 0 1 1.762-13.7.258.258 0 0 1 .035-.058L631.2 351.945l-1.46-10.687 25.894-2.388.846 89.748c.29 1.09 3.037 13.944 3.048 14.106a23.582 23.582 0 0 1-3.083 13.643z" class="prefix__cls-11" data-name="Path 181" transform="translate(-491.472 -99.971)"/>
                <path id="prefix__Path_182" d="M606.692 231.629c1.012-2.3 1.859-3.921 2.225-4.617a15.435 15.435 0 0 0 7.336-.911c2-.759 4.187-1.947 6.148-1.087 2.074.9 2.643 3.516 4.048 5.274a9.11 9.11 0 0 0 5.451 2.96c2.075.417 4.2.43 6.286.7a6.406 6.406 0 0 1 2.379.657c1.72.949 2.4 3.112 2.466 5.085a12.457 12.457 0 0 1-1.253 5.843c2.96-.152 5.553.417 5.654 3.985a12.349 12.349 0 0 1-.493 3.63c-1.822 6.981-7.855 7.627-7.855 7.627a20.131 20.131 0 0 1-4.692 6.919l1.885 14.71s-17.354 12.129-28.13 8.436c-6.312-2.163-6.843-7.969-6.2-12.4h.013c20.35 2.251 28.1-8.651 28.1-8.651-6.8 3.795-17.341 5.35-23.615-.088a15.193 15.193 0 0 1-4.869-9.4c-1.776-10.611 2.295-22.247 5.116-28.672z" class="prefix__cls-11" data-name="Path 182" transform="translate(-496.021 -118.133)"/>
                <path id="prefix__Path_183" d="M606.341 263.526c6.274 5.438 16.81 3.883 23.615.088 0 0-7.754 10.9-28.1 8.652h-.013a24.913 24.913 0 0 1 1.5-5.6l2.986-3.124z" data-name="Path 183" transform="translate(-495.91 -111.958)"/>
                <path id="prefix__Path_184" d="M600.8 418.193l-41.2 9.043c.3-5.047.633-9.879.937-14.027z" data-name="Path 184" transform="translate(-502.631 -88.145)"/>
                <path id="prefix__Path_185" d="M584.729 265.542l-16.19 29.775S528 265.77 525.662 260.559s-8.677-68.63-8.677-68.63v-8.2s3.517 2.63 5.856 2.454 2.821-3.39 2.821-3.39c2.934-.417.354-5.047.354-5.047 1.557.064 1.557-1.631 1.2-3.237a17.821 17.821 0 0 0-.86-2.732s-2.694-9.613-1.4-10.183 6.8 7.361 7.74 8.765-2.34 9.613-2.34 9.613c1.164 4.338 0 10.549 0 10.549l14.293 58.017z" class="prefix__cls-11" data-name="Path 185" transform="translate(-509.41 -128.179)"/>
                <g id="prefix__Group_27" data-name="Group 27" transform="translate(109.591 113.083)">
                    <circle id="prefix__Ellipse_5" cx="5.572" cy="5.572" r="5.572" class="prefix__cls-12" data-name="Ellipse 5" transform="translate(15.13 19.301)"/>
                    <path id="prefix__Path_186" d="M639.6 249.2a.76.76 0 0 0-.978.364.745.745 0 0 0 .363.978c.535.185-.871 1.631-1.183 1.786-1.052.522-1-1.171-.909-1.75a5.8 5.8 0 0 1 1.429-2.948 1.679 1.679 0 0 1 .964-.615.569.569 0 0 1 .315.1c.152.107.116.08.115.258a.744.744 0 0 0 .814.654.754.754 0 0 0 .654-.813c0-1.358-1.641-1.96-2.733-1.484a5.557 5.557 0 0 0-2.572 3.054c-.5 1.24-.866 2.93-.114 4.144a2.006 2.006 0 0 0 1.574.961 2.583 2.583 0 0 0 1.928-.845 4.342 4.342 0 0 0 1.266-1.919 1.636 1.636 0 0 0-.933-1.925z" class="prefix__cls-12" data-name="Path 186" transform="translate(-600.173 -227.899)"/>
                    <path id="prefix__Path_187" d="M612.346 232.97l-2.9-2.349a1.476 1.476 0 0 0-2.067.285A1.486 1.486 0 0 0 607.1 232a1.581 1.581 0 0 0 .571.974l2.9 2.351a1.476 1.476 0 0 0 2.067-.285 1.485 1.485 0 0 0 .286-1.093 1.579 1.579 0 0 0-.578-.977z" data-name="Path 187" transform="translate(-604.668 -230.323)"/>
                    <path id="prefix__Path_188" d="M625.3 236.048a1.488 1.488 0 0 0-.54-.971 1.676 1.676 0 0 0-1.1-.315l-4.348.125a1.486 1.486 0 0 0-.972.541 1.5 1.5 0 0 0-.314 1.1 1.488 1.488 0 0 0 .54.972 1.663 1.663 0 0 0 1.1.314l4.349-.125a1.479 1.479 0 0 0 .972-.54 1.508 1.508 0 0 0 .313-1.101z" data-name="Path 188" transform="translate(-602.93 -229.617)"/>
                    <ellipse id="prefix__Ellipse_6" cx="2.867" cy="2.28" data-name="Ellipse 6" rx="2.867" ry="2.28" transform="rotate(-75.771 6.437 5.008)"/>
                    <ellipse id="prefix__Ellipse_7" cx="2.867" cy="2.28" data-name="Ellipse 7" rx="2.867" ry="2.28" transform="rotate(-75.771 16.872 -1.862)"/>
                    <path id="prefix__Path_189" d="M615.253 256.137c-2.8-.786-5.879-1.143-7.966-3.383-.509-.547.381-1.29.888-.745 1.907 2.047 4.937 2.326 7.483 3.043.717.2.31 1.286-.405 1.085z" data-name="Path 189" transform="translate(-604.659 -226.904)"/>
                </g>
                <path id="prefix__Path_190" d="M612.359 239.226s-7.969 6.809-8.14 9.534l8.325.43z" class="prefix__cls-12" data-name="Path 190" transform="translate(-495.532 -115.824)"/>
                <path id="prefix__Path_191" d="M643.043 230.8a.534.534 0 0 0-.562-.471.522.522 0 0 0-.471.561 4.922 4.922 0 0 1-.718 3.657.533.533 0 0 0 .064.729.521.521 0 0 0 .729-.064 5.949 5.949 0 0 0 .958-4.412z" class="prefix__cls-9" data-name="Path 191" transform="translate(-489.652 -117.239)"/>
                <path id="prefix__Path_192" d="M641.661 228.77l-1.8-2.4a.518.518 0 1 0-.846.6l1.8 2.4a.518.518 0 0 0 .846-.6z" class="prefix__cls-9" data-name="Path 192" transform="translate(-490.01 -117.904)"/>
                <path id="prefix__Path_193" d="M639.655 230.809l-.97-2.106a.519.519 0 1 0-.973.36q.487 1.054.971 2.107a.518.518 0 0 0 .971-.362z" class="prefix__cls-9" data-name="Path 193" transform="translate(-490.209 -117.552)"/>
                <path id="prefix__Path_194" d="M618.875 211.415c-.693-1.327-2.158-1.39-3.485-1.278a5.557 5.557 0 0 1-3.992-1.055c-.529-.406-1.2.386-.667.794a6.4 6.4 0 0 0 3.7 1.335c.711.023 1.418-.134 2.127-.089a1.607 1.607 0 0 1 1.347.655.534.534 0 0 0 .665.3.52.52 0 0 0 .305-.662z" class="prefix__cls-9" data-name="Path 194" transform="translate(-494.527 -120.637)"/>
                <path id="prefix__Path_195" d="M608.275 208.629a4.393 4.393 0 0 1-.679-.312.787.787 0 0 1-.153-.092c.083.082.027.017-.008-.006l-.073-.051c-.1-.072-.2-.148-.3-.228s-.178-.156-.263-.24l-.074-.076c-.037-.041-.073-.081-.108-.123a4.339 4.339 0 0 1-.435-.629.52.52 0 0 0-.722-.123.532.532 0 0 0-.124.722 4.782 4.782 0 0 0 2.5 2.1.53.53 0 0 0 .69-.247.523.523 0 0 0-.251-.695z" class="prefix__cls-9" data-name="Path 195" transform="translate(-495.368 -121.006)"/>
                <path id="prefix__Path_196" d="M610.708 211.63a5.736 5.736 0 0 1-3.485-1.351.518.518 0 0 0-.665.794 6.817 6.817 0 0 0 4.241 1.59.52.52 0 0 0 .471-.561.531.531 0 0 0-.562-.472z" class="prefix__cls-9" data-name="Path 196" transform="translate(-495.189 -120.449)"/>
                <path id="prefix__Path_197" d="M630.536 343.478l1.455 10.688-.114.013L628.689 376c-8.044-16.8-1.29-51.112-1.29-51.112l1.607 18.732z" data-name="Path 197" transform="translate(-492.266 -102.196)"/>
                <g id="prefix__Group_29" data-name="Group 29" transform="translate(56.093 137.363)">
                    <g id="prefix__Group_28" clip-path="url(#prefix__clip-path-2)" data-name="Group 28">
                        <path id="prefix__Path_198" d="M641.02 355.189l-1.53.139-1.606-18.728s-6.754 34.315 1.29 51.112l-1.29 8.778c6.135 2.289-.683 6.678.544 12.661l6.691 21.439c-33.29 11.612-83.453-4.92-83.453-4.92 1.758-27.889 9.144-113.683 9.144-113.683l-11.965-25.372 3.036-5.565 16.19-29.775 18.758 8.9a23.429 23.429 0 0 1 3.048 0c1.517.115 3.276 4.453 3.276 4.453s1.872-2.695 2.82-2.34 4.212 6.324 4.212 6.324a24.908 24.908 0 0 0-1.5 5.6c-.646 4.427-.115 10.232 6.2 12.4 10.776 3.693 28.13-8.436 28.13-8.436s14.937 16.7 23.2 24.082 4.224 10.548 4.224 10.548c5.451 1.4 0 5.97 0 5.97v33.708l-3.516.329z" class="prefix__cls-3" data-name="Path 198" transform="translate(-558.844 -251.271)"/>
                        <path id="prefix__Path_199" d="M686.93 331.048c-8.842 7.165-12.647 18.133-18.763 27.359a39.437 39.437 0 0 1-10.975 11.549 20.568 20.568 0 0 1-14.7 3.155c-9.984-1.642-18.222-8.716-28.313-9.975a22.03 22.03 0 0 0-14.9 3.691c-4.808 3.139-8.565 7.54-12.077 12.017-3.677 4.686-7.241 9.626-11.955 13.346-4.308 3.4-9.922 5.868-15.509 5.3a14.718 14.718 0 0 1-3.93-.953c-.619-.245-1.064.692-.444.937 5.172 2.043 10.9 1.058 15.749-1.413 5.283-2.694 9.343-7.057 13.014-11.621 6.877-8.552 14.3-19.945 26.5-20.435 5.079-.2 9.958 1.633 14.528 3.652 4.662 2.06 9.223 4.45 14.158 5.808a22.192 22.192 0 0 0 14.762-.67c4.873-2.082 8.87-5.8 12.13-9.91 6.964-8.772 10.44-19.895 18.2-28.091a32.387 32.387 0 0 1 3.132-2.9c.507-.417-.086-1.267-.607-.846z" class="prefix__cls-6" data-name="Path 199" transform="translate(-559.446 -238.597)"/>
                        <path id="prefix__Path_200" d="M671.869 294.515c-.034-.666-1.065-.575-1.033.09a15.885 15.885 0 0 1-7.328 14.033c-5.25 3.27-11.805 3.035-17.752 2.864-5.653-.162-11.716-.25-16.871 2.433-4.473 2.327-7.094 6.53-8.68 11.181-1.615 4.735-2.367 9.735-4.214 14.395a20.8 20.8 0 0 1-3.913 6.514 17.854 17.854 0 0 1-6.862 4.582 17.462 17.462 0 0 1-16.114-2.1 17.813 17.813 0 0 1-5.5-6.241 62.015 62.015 0 0 1-3.162-7.888 27.2 27.2 0 0 0-3.714-7.349 14.18 14.18 0 0 0-5.611-4.351 16.14 16.14 0 0 0-13.66.4 13.587 13.587 0 0 0-2.825 1.962c-.488.44.1 1.292.6.845a14.581 14.581 0 0 1 13.649-2.906 13.542 13.542 0 0 1 6.121 3.616 21.387 21.387 0 0 1 4.146 7.288c1.015 2.659 1.844 5.4 3.088 7.964a19.368 19.368 0 0 0 4.946 6.491 18.6 18.6 0 0 0 15.477 4.068 19 19 0 0 0 12.773-9.283c2.454-4.358 3.39-9.362 4.684-14.137 1.261-4.657 2.966-9.52 6.887-12.617 4.672-3.688 11.015-4 16.72-3.891 6 .111 12.337.665 18-1.756a16.93 16.93 0 0 0 9.857-12.2 16.319 16.319 0 0 0 .291-4.007z" class="prefix__cls-6" data-name="Path 200" transform="translate(-559.543 -244.464)"/>
                        <path id="prefix__Path_201" d="M601.309 283.008a64.786 64.786 0 0 0-13.152-30.6q-.873-1.108-1.794-2.176c-.431-.5-1.282.092-.846.6a63.97 63.97 0 0 1 11.067 18.388 63.265 63.265 0 0 1 3.1 10.464 47.981 47.981 0 0 1 1.106 10.873 20.126 20.126 0 0 1-2.97 10.6 13.643 13.643 0 0 1-7.388 5.634c-3.284.944-6.407-.127-9.422-1.423-2.929-1.259-6.04-2.749-9.319-2.275-3.831.555-6.49 3.524-9.938 4.954-2.472 1.025-6.559 1.288-7.86-1.641-.269-.605-1.243-.25-.971.362 1.15 2.588 4.092 3.291 6.688 2.924 3.36-.473 5.879-2.795 8.771-4.352a9.5 9.5 0 0 1 5.2-1.281 16.145 16.145 0 0 1 4.942 1.37c3.12 1.292 6.264 2.95 9.742 2.77a13.175 13.175 0 0 0 8.521-4.13 17.825 17.825 0 0 0 4.622-9.415 36.055 36.055 0 0 0-.099-11.646z" class="prefix__cls-6" data-name="Path 201" transform="translate(-559.794 -251.467)"/>
                        <path id="prefix__Path_202" d="M578.321 267.667c-2.362-4.657-5.845-8.588-9.295-12.459-.438-.491-1.29.1-.846.6 5.576 6.259 11.8 13.36 11.795 22.255a16.51 16.51 0 0 1-12.75 15.887 16.752 16.752 0 0 1-12.45-2.206c-.554-.356-1.226.434-.666.794a17.4 17.4 0 0 0 26.726-12.056 21.827 21.827 0 0 0-2.514-12.815z" class="prefix__cls-6" data-name="Path 202" transform="translate(-559.631 -250.674)"/>
                        <path id="prefix__Path_203" d="M662.278 284.19a57.58 57.58 0 0 1-26.062 17.991 55.65 55.65 0 0 1-7.709 2.01c-2.247.414-4.788.9-7.006.085a3.532 3.532 0 0 1-2.252-2.169 4.427 4.427 0 0 1 .794-3.8 10.02 10.02 0 0 1 3.194-2.646c1.367-.8 2.777-1.533 4.168-2.293l19.809-10.8c.584-.319-.019-1.163-.6-.846l-18.789 10.246c-1.539.839-3.087 1.664-4.617 2.521a13.733 13.733 0 0 0-3.432 2.511c-1.724 1.858-2.477 4.913-.622 6.953 1.533 1.686 4.094 1.893 6.229 1.736a42.517 42.517 0 0 0 7.955-1.549 58.539 58.539 0 0 0 29.735-19.286c.421-.516-.373-1.182-.795-.664z" class="prefix__cls-6" data-name="Path 203" transform="translate(-549.421 -246.438)"/>
                        <path id="prefix__Path_204" d="M640.782 395.794a11.13 11.13 0 0 0-4.757-6.61 20.581 20.581 0 0 0-4.57-2c-1.691-.557-3.393-1.086-5.088-1.626-3.585-1.142-7.161-2.316-10.756-3.423-3.324-1.025-6.777-1.728-10.181-.641a20.655 20.655 0 0 0-7.506 4.861c-2.581 2.391-5.005 4.961-7.484 7.456l-18.179 18.3c-.471.474.326 1.137.794.666l15.445-15.554 7.635-7.686a36.078 36.078 0 0 1 6.744-5.736 12.5 12.5 0 0 1 9.148-1.537 95.145 95.145 0 0 1 10.347 3.1c3.357 1.07 6.78 2.025 10.081 3.258 2.795 1.045 5.23 2.638 6.562 5.394 3.182 6.586-.279 13.688-3.311 19.6-.306.595.633 1.035.937.443 2.88-5.61 5.883-11.821 4.139-18.265z" class="prefix__cls-6" data-name="Path 204" transform="translate(-556.733 -230.641)"/>
                    </g>
                </g>
                <path id="prefix__Path_206" d="M626.441 313.981v10.8c0 .666 1.033.573 1.033-.09v-10.8c0-.667-1.033-.573-1.033.09z" data-name="Path 206" transform="translate(-491.996 -104.018)"/>
                <path id="prefix__Path_207" d="M626.19 324.108l-5.2-8.2c-.357-.563-1.2.036-.845.6l5.2 8.2c.355.563 1.202-.037.845-.6z" data-name="Path 207" transform="translate(-493.013 -103.66)"/>
                <path id="prefix__Path_208" d="M581.443 289l-10.833 13.8c-.411.524.381 1.192.794.665l10.833-13.8c.411-.527-.382-1.195-.794-.665z" data-name="Path 208" transform="translate(-500.897 -107.936)"/>
                <path id="prefix__Path_209" d="M574.76 287.521l-5.116 12.125c-.258.614.677 1.058.937.443l5.116-12.125c.259-.615-.677-1.059-.937-.443z" data-name="Path 209" transform="translate(-501.04 -108.188)"/>
                <path id="prefix__Path_210" d="M645.293 329.785l-13.01 6.82c-.582.3-.229 1.281.362.971l13.008-6.82c.583-.304.23-1.28-.36-.971z" data-name="Path 210" transform="translate(-491.114 -101.426)"/>
                <path id="prefix__Path_211" d="M646.649 332.435l-9.072 3.029c-.632.211-.271 1.182.362.97l9.072-3.028c.632-.206.271-1.182-.362-.971z" data-name="Path 211" transform="translate(-490.277 -101)"/>
                <path id="prefix__Rectangle_31" d="M0 0H10.656V95.574H0z" class="prefix__cls-4" data-name="Rectangle 31" transform="translate(5.722)"/>
                <path id="prefix__Path_212" d="M528.257 173.461c.355 1.606.355 3.3-1.2 3.237 0 0 2.58 4.629-.354 5.047 0 0-.468 3.226-2.821 3.39s-5.856-2.454-5.856-2.454v8.2s-11.181-11.308-6.375-15.228a1.989 1.989 0 0 1 1.455-2.695s-.291-5.515 4.225-4.692 9.51.654 10.926 5.195z" class="prefix__cls-11" data-name="Path 212" transform="translate(-510.45 -127.127)"/>
                <path id="prefix__Path_213" d="M517.861 161.73c1.53 1.277 5.338 5.287 1.872 6.235s-7.614-4.692-7.614-4.692c-2.758-4.048 4.223-2.809 5.742-1.543z" class="prefix__cls-11" data-name="Path 213" transform="translate(-510.286 -128.347)"/>
                <path id="prefix__Path_214" d="M532.9 173.237a1.641 1.641 0 0 0-2.018-.883c-.634.209-.272 1.18.361.971.722-.239.88.7.634 1.172a1.942 1.942 0 0 1-1.4.916 5.878 5.878 0 0 1-3.48-.846.52.52 0 0 0-.554.866c1.04.894 2.849 2.655 1.463 4.033-1.32 1.311-3.368.487-4.809-.11-.512-.213-1.067.52-.554.865a5.01 5.01 0 0 1 2.176 2.161 1.427 1.427 0 0 1-1.2 2.055 5.481 5.481 0 0 1-2.754-.7 10.93 10.93 0 0 1-2.778-1.908c-.489-.456-1.153.341-.667.794a11.761 11.761 0 0 0 3.708 2.355 4.6 4.6 0 0 0 3.548.247 2.42 2.42 0 0 0 1.219-2.833 3.374 3.374 0 0 0-.649-1.313 3.645 3.645 0 0 0 3.679-1.079c1.031-1.229.639-2.567-.164-3.706a3.673 3.673 0 0 0 3.6-.632 2.184 2.184 0 0 0 .639-2.425z" data-name="Path 214" transform="translate(-509.383 -126.476)"/>
                <path id="prefix__Path_215" d="M643.957 426.921a.584.584 0 0 0-.772.276l-3.125 9.673a.6.6 0 0 0 .276.772.583.583 0 0 0 .772-.277l3.125-9.671a.6.6 0 0 0-.276-.773z" data-name="Path 215" transform="translate(-489.837 -85.971)"/>
                <path id="prefix__Path_216" d="M647.157 431.324a50.8 50.8 0 0 1-6.428 13.207c-.417.612.467 1.363.888.745a52.7 52.7 0 0 0 6.681-13.742c.226-.711-.917-.913-1.141-.21z" data-name="Path 216" transform="translate(-489.741 -85.332)"/>
                <path id="prefix__Path_217" d="M650.076 433.338a37.339 37.339 0 0 1-3.64 10.039c-.352.661.7 1.152 1.048.5a38.462 38.462 0 0 0 3.732-10.325.58.58 0 0 0-1.14-.214z" data-name="Path 217" transform="translate(-488.827 -85.014)"/>
                <path id="prefix__Path_218" d="M653.347 432.939a45.239 45.239 0 0 1-1.959 8.866.6.6 0 0 0 .276.772.584.584 0 0 0 .772-.277 46.685 46.685 0 0 0 2.052-9.151c.087-.738-1.052-.949-1.141-.21z" data-name="Path 218" transform="translate(-488.034 -85.079)"/>
            </g>
            <path id="prefix__Path_219" d="M576.3 160.405h-81.911l-9.2-76.416 91.114-3.3z" class="prefix__cls-14" data-name="Path 219" transform="translate(-485.186 -80.695)"/>
        </g>
        <g id="prefix__Group_34" data-name="Group 34" transform="translate(269.244 230.116)">
            <path id="prefix__Rectangle_32" d="M0 0H12.405V141.878H0z" class="prefix__cls-4" data-name="Rectangle 32" transform="translate(32.477 65.411)"/>
            <g id="prefix__Group_33" data-name="Group 33" transform="translate(25.464 17.422)">
                <path id="prefix__Path_220" d="M466.886 429.522l22.585 34.164h-54.805l-14.194-22.872-39.337-6.242-1-5.05c37.093 10.457 86.751 0 86.751 0z" class="prefix__cls-3" data-name="Path 220" transform="translate(-277.066 -192.043)"/>
                <path id="prefix__Path_221" d="M420.335 440.121l5.831 22.872h-39.448L381 433.879z" class="prefix__cls-3" data-name="Path 221" transform="translate(-276.929 -191.35)"/>
                <path id="prefix__Path_222" d="M451.683 371.017l15.412 76.483s-49.658 10.457-86.751 0c0 0-1.52-18.793-1.52-43.349 0-8.5.177-17.684.67-27.02a11.835 11.835 0 0 0 14.729.438l27.47-20.5 13.442 2.792c10.854-10.1 16.794-29.113 19.122-38.2a25.329 25.329 0 0 0 1.163-5 .175.175 0 0 0 .014-.082l3.19-.082a24.424 24.424 0 0 1-.849 6.953c-5.326 19.89-6.092 47.567-6.092 47.567z" class="prefix__cls-9" data-name="Path 222" transform="translate(-277.275 -210.024)"/>
                <path id="prefix__Path_223" d="M432.1 286.707c2.656-1.532 4.559-2.628 5.16-2.942l6.652 10.375s16.18 11.32 16.453 27.567l-3.19.082a.174.174 0 0 1-.014.082c-.081.41-.451 2.244-1.163 5-4.736 14.07-21.025 32.576-21.025 32.576L426.624 354l-26.773-17.479-.014.014-19.477 17.187s.4-4.243.945-9.91c.533-5.693 1.218-12.852 1.792-18.573l-8.048 13.469-4.682-3.819-2.491-2.04s12.552-16.987 19.286-25.02a22.082 22.082 0 0 1 15.975-7.883l.407 3.574c4.039-2.396 19.535-11.571 28.556-16.813z" class="prefix__cls-9" data-name="Path 223" transform="translate(-279.016 -215.232)"/>
                <path id="prefix__Path_224" d="M454.165 320.951c-2.328 9.088-8.268 28.1-19.122 38.2L421.6 356.36l-27.47 20.5a11.835 11.835 0 0 1-14.729-.438l.014-.1a23.767 23.767 0 0 0 3.108.068c5.625-.589 38.49-25.459 42.267-28.32l8.349 5.448s16.289-18.497 21.026-32.567z" data-name="Path 224" transform="translate(-277.183 -209.316)"/>
                <path id="prefix__Path_225" d="M414.935 439.264l14.194 22.872h-8.363z" data-name="Path 225" transform="translate(-271.53 -190.493)"/>
                <path id="prefix__Path_226" d="M365.825 351.231h21.353l5.379-4.75 19.477-17.192.014-.014 26.773 17.479c-3.777 2.861-36.642 27.731-42.267 28.32a23.778 23.778 0 0 1-3.108-.068v-.014c-15.412-1-76.541-9.308-76.541-9.308s-18.136 2.792-22.065 1.546-1.52-5.352-1.52-5.352c-3.052-1.26-.26-7.35-.26-7.35-2.916-1.78-.507-4.969-.507-4.969-3.039-2.3-.247-9.486 1.779-9.294s4.571 4.873 4.571 4.873-3.3-12.429 0-10.184 14.197 16.277 14.197 16.277z" class="prefix__cls-15" data-name="Path 226" transform="translate(-291.213 -207.991)"/>
                <path id="prefix__Path_227" d="M374.065 333.015l8.048-13.469c-.574 5.721-1.259 12.88-1.792 18.573z" data-name="Path 227" transform="translate(-278.032 -209.539)"/>
                <path id="prefix__Path_228" d="M386.575 336.333l6.256 5.1c-.548 5.667-.945 9.91-.945 9.91l-5.379 4.75h-21.354l-55-27.649-2.683-21.558s-12.414-4.449-12.031-6.283 14.96-2.093 16.74-1.834 2.792 12.578 2.792 12.578l64.428 23.3 2.491-2.135z" class="prefix__cls-15" data-name="Path 228" transform="translate(-290.541 -212.858)"/>
                <path id="prefix__Path_229" d="M392 308.989a1.7 1.7 0 0 0-2.369.207l-4.027 5.629a1.789 1.789 0 0 0-.387 1.227 1.681 1.681 0 0 0 2.964.934l4.027-5.629a1.791 1.791 0 0 0 .387-1.227 1.715 1.715 0 0 0-.595-1.141z" class="prefix__cls-6" data-name="Path 229" transform="translate(-276.258 -211.279)"/>
                <path id="prefix__Path_230" d="M406.686 307.248l-6.273-1.727a1.69 1.69 0 0 0-1.959 1.35 1.728 1.728 0 0 0 1.35 1.959l6.273 1.727a1.69 1.69 0 0 0 1.959-1.35 1.727 1.727 0 0 0-1.35-1.959z" class="prefix__cls-6" data-name="Path 230" transform="translate(-274.155 -211.778)"/>
                <path id="prefix__Path_231" d="M396.582 316.2a1.683 1.683 0 0 0-3.1-.132l-1.87 4.676a1.782 1.782 0 0 0-.056 1.305 1.682 1.682 0 0 0 3.1.132l1.87-4.675a1.786 1.786 0 0 0 .056-1.306z" class="prefix__cls-6" data-name="Path 231" transform="translate(-275.264 -210.243)"/>
                <path id="prefix__Path_232" d="M419.113 302.137l-6.859-.923a1.682 1.682 0 1 0-.607 3.309l6.858.923a1.682 1.682 0 0 0 .609-3.309z" class="prefix__cls-6" data-name="Path 232" transform="translate(-272.271 -212.458)"/>
                <path id="prefix__Path_233" d="M435.049 298.072l-6.217-2.227a1.827 1.827 0 0 0-1.306-.056 1.683 1.683 0 0 0-.132 3.1l6.219 2.227a1.812 1.812 0 0 0 1.305.056 1.682 1.682 0 0 0 .132-3.1z" class="prefix__cls-6" data-name="Path 233" transform="translate(-269.697 -213.334)"/>
                <path id="prefix__Path_234" d="M431.791 308.286a1.722 1.722 0 0 0-1.069-.683 1.7 1.7 0 0 0-1.276.283l-.316.291a1.683 1.683 0 0 0-.366.778l-1.247 4.051a1.685 1.685 0 0 0 .283 1.276 1.682 1.682 0 0 0 2.345.4l.315-.292a1.668 1.668 0 0 0 .366-.777l1.247-4.052a1.689 1.689 0 0 0-.282-1.275z" class="prefix__cls-6" data-name="Path 234" transform="translate(-269.534 -211.443)"/>
                <path id="prefix__Path_235" d="M420.115 314.2a1.683 1.683 0 0 0-3.028.669l-.614 5.3a1.786 1.786 0 0 0 .283 1.276 1.681 1.681 0 0 0 3.026-.668l.614-5.3a1.789 1.789 0 0 0-.281-1.277z" class="prefix__cls-6" data-name="Path 235" transform="translate(-271.288 -210.501)"/>
                <path id="prefix__Path_236" d="M411.048 328.038l-.625-4.675a1.768 1.768 0 0 0-.595-1.142 1.682 1.682 0 0 0-2.756 1.435l.625 4.675a1.768 1.768 0 0 0 .595 1.142 1.682 1.682 0 0 0 2.756-1.435z" class="prefix__cls-6" data-name="Path 236" transform="translate(-272.783 -209.177)"/>
                <path id="prefix__Path_237" d="M427.314 330.506a1.7 1.7 0 0 0-.858-.933 1.94 1.94 0 0 0-1.305-.056l-6.241 1.53a1.683 1.683 0 0 0-.934.858 1.682 1.682 0 0 0 .8 2.239 1.94 1.94 0 0 0 1.305.056l6.241-1.53a1.683 1.683 0 0 0 .934-.858 1.718 1.718 0 0 0 .058-1.306z" class="prefix__cls-6" data-name="Path 237" transform="translate(-271.071 -207.967)"/>
                <path id="prefix__Path_238" d="M436.293 323.3l-1.246-4.676a1.689 1.689 0 0 0-.858-.933 1.681 1.681 0 0 0-2.241.8 1.909 1.909 0 0 0-.056 1.306l1.247 4.675a1.691 1.691 0 0 0 .858.934 1.715 1.715 0 0 0 1.305.056 1.7 1.7 0 0 0 .934-.857 1.9 1.9 0 0 0 .057-1.305z" class="prefix__cls-6" data-name="Path 238" transform="translate(-268.846 -209.86)"/>
                <path id="prefix__Path_239" d="M444.262 316.05l-1.8-5.012a1.682 1.682 0 1 0-3.153 1.174l1.8 5.012a1.683 1.683 0 1 0 3.154-1.174z" class="prefix__cls-6" data-name="Path 239" transform="translate(-267.668 -211.068)"/>
                <path id="prefix__Path_240" d="M438.822 356.806L437.264 354a1.689 1.689 0 0 0-1.069-.683 1.718 1.718 0 0 0-1.276.282 1.7 1.7 0 0 0-.683 1.069l-.021.451a1.681 1.681 0 0 0 .3.825l1.559 2.805a1.685 1.685 0 0 0 1.069.683 1.718 1.718 0 0 0 1.276-.282 1.7 1.7 0 0 0 .683-1.069l.021-.451a1.671 1.671 0 0 0-.301-.824z" class="prefix__cls-6" data-name="Path 240" transform="translate(-268.462 -204.17)"/>
                <path id="prefix__Path_241" d="M426.548 356.152a1.681 1.681 0 0 0-2.345-.4 1.62 1.62 0 0 0-.682 1.069l-.312 5.611a1.849 1.849 0 0 0 .282 1.276 1.723 1.723 0 0 0 1.069.683 1.7 1.7 0 0 0 1.276-.283 1.616 1.616 0 0 0 .683-1.069l.312-5.61a1.849 1.849 0 0 0-.283-1.277z" class="prefix__cls-6" data-name="Path 241" transform="translate(-270.215 -203.828)"/>
                <path id="prefix__Path_242" d="M416.976 359.764a1.685 1.685 0 0 0-2.164-.99 1.624 1.624 0 0 0-.933.858l-1.559 4.676a1.839 1.839 0 0 0-.056 1.306 1.684 1.684 0 0 0 2.163.99 1.623 1.623 0 0 0 .934-.858l1.558-4.676a1.839 1.839 0 0 0 .057-1.306z" class="prefix__cls-6" data-name="Path 242" transform="translate(-271.97 -203.315)"/>
                <path id="prefix__Path_243" d="M423.937 373.454l-3.181-4.316a1.76 1.76 0 0 0-1.069-.683 1.682 1.682 0 0 0-1.677 2.627l3.182 4.316a1.754 1.754 0 0 0 1.069.683 1.682 1.682 0 0 0 1.676-2.627z" class="prefix__cls-6" data-name="Path 243" transform="translate(-271.089 -201.762)"/>
                <path id="prefix__Path_244" d="M439.272 372.827a1.709 1.709 0 0 0-1.822-1.529l-6.549.576a1.682 1.682 0 0 0 .293 3.351l6.549-.576a1.7 1.7 0 0 0 1.529-1.822z" class="prefix__cls-6" data-name="Path 244" transform="translate(-269.235 -201.307)"/>
                <path id="prefix__Path_245" d="M441.42 381.789l-.963-4.358a1.853 1.853 0 0 0-.593-1.142 1.683 1.683 0 0 0-2.37.207 1.617 1.617 0 0 0-.387 1.227l.963 4.358a1.848 1.848 0 0 0 .595 1.142 1.681 1.681 0 0 0 2.369-.207 1.613 1.613 0 0 0 .386-1.227z" class="prefix__cls-6" data-name="Path 245" transform="translate(-268.006 -200.575)"/>
                <path id="prefix__Path_246" d="M423.96 381.982a1.694 1.694 0 0 0-1.822-1.529 1.719 1.719 0 0 0-1.529 1.822l.248 5.925a1.694 1.694 0 0 0 1.822 1.529 1.719 1.719 0 0 0 1.529-1.822z" class="prefix__cls-6" data-name="Path 246" transform="translate(-270.627 -199.851)"/>
                <path id="prefix__Path_247" d="M412.7 375.781a1.683 1.683 0 0 0-2.345-.4 1.926 1.926 0 0 0-.683 1.069l-1.246 4.364a1.69 1.69 0 0 0 .282 1.276 1.683 1.683 0 0 0 2.345.4 1.919 1.919 0 0 0 .683-1.069q.622-2.182 1.246-4.363a1.692 1.692 0 0 0-.282-1.277z" class="prefix__cls-6" data-name="Path 247" transform="translate(-272.571 -200.705)"/>
                <path id="prefix__Path_248" d="M404.363 378.846l-5.4-6.458a1.682 1.682 0 0 0-2.746 1.945l5.4 6.458a1.682 1.682 0 1 0 2.745-1.945z" class="prefix__cls-6" data-name="Path 248" transform="translate(-274.558 -201.246)"/>
                <path id="prefix__Path_249" d="M392.1 383.922l-5.923-1.557a1.692 1.692 0 0 0-1.959 1.35 1.724 1.724 0 0 0 1.35 1.958l5.923 1.558a1.692 1.692 0 0 0 1.959-1.35 1.725 1.725 0 0 0-1.35-1.959z" class="prefix__cls-6" data-name="Path 249" transform="translate(-276.419 -199.552)"/>
                <path id="prefix__Path_250" d="M402.417 386.967a1.72 1.72 0 0 0-1.959 1.35q-.821 3.418-1.639 6.837a1.694 1.694 0 0 0 1.35 1.959 1.722 1.722 0 0 0 1.959-1.35l1.639-6.839a1.694 1.694 0 0 0-1.35-1.957z" class="prefix__cls-6" data-name="Path 250" transform="translate(-274.099 -198.816)"/>
                <path id="prefix__Path_251" d="M392.879 395.707a1.682 1.682 0 1 0-3.351.293l.629 7.168a1.682 1.682 0 1 0 3.351-.293z" class="prefix__cls-6" data-name="Path 251" transform="translate(-275.573 -197.668)"/>
                <path id="prefix__Path_252" d="M414.311 399.769a1.711 1.711 0 0 0-1.822-1.529l-6.857.62a1.682 1.682 0 1 0 .293 3.351l6.857-.62a1.7 1.7 0 0 0 1.529-1.822z" class="prefix__cls-6" data-name="Path 252" transform="translate(-273.255 -197.021)"/>
                <path id="prefix__Path_253" d="M424.288 399.367l-3.429-5.3a1.7 1.7 0 0 0-2.345-.4 1.719 1.719 0 0 0-.4 2.345l3.429 5.3a1.7 1.7 0 0 0 2.345.4 1.719 1.719 0 0 0 .4-2.345z" class="prefix__cls-6" data-name="Path 253" transform="translate(-271.071 -197.796)"/>
                <path id="prefix__Path_254" d="M440.108 392.832a1.719 1.719 0 0 0-2.164-.99l-7.48 2.5a1.7 1.7 0 0 0-.99 2.163 1.717 1.717 0 0 0 2.164.99l7.48-2.5a1.7 1.7 0 0 0 .99-2.163z" class="prefix__cls-6" data-name="Path 254" transform="translate(-269.234 -198.053)"/>
                <path id="prefix__Path_255" d="M446.328 401.263l-2.482-6.238a1.682 1.682 0 0 0-3.154 1.173l2.482 6.238a1.682 1.682 0 0 0 3.154-1.173z" class="prefix__cls-6" data-name="Path 255" transform="translate(-267.449 -197.707)"/>
                <path id="prefix__Path_256" d="M436.017 406.454a1.682 1.682 0 0 0-3.351.292l.618 7.482a1.682 1.682 0 0 0 3.351-.293l-.618-7.481z" class="prefix__cls-6" data-name="Path 256" transform="translate(-268.71 -195.958)"/>
                <path id="prefix__Path_257" d="M426.871 416.445l-4.737-6.187a1.682 1.682 0 0 0-2.746 1.945l4.737 6.186a1.682 1.682 0 1 0 2.746-1.944z" class="prefix__cls-6" data-name="Path 257" transform="translate(-270.87 -195.22)"/>
                <path id="prefix__Path_258" d="M411.267 413.778l-5.295-2.813a1.694 1.694 0 0 0-2.239.8 1.719 1.719 0 0 0 .8 2.239l5.294 2.814a1.7 1.7 0 0 0 2.241-.8 1.72 1.72 0 0 0-.801-2.24z" class="prefix__cls-6" data-name="Path 258" transform="translate(-273.335 -195.022)"/>
                <path id="prefix__Path_259" d="M395.21 410.478a1.721 1.721 0 0 0-2.239.8l-3.739 6.857a1.693 1.693 0 0 0 .8 2.239 1.721 1.721 0 0 0 2.241-.8l3.739-6.857a1.7 1.7 0 0 0-.802-2.239z" class="prefix__cls-6" data-name="Path 259" transform="translate(-275.646 -195.096)"/>
                <path id="prefix__Path_260" d="M388.069 424.123l-3.7-5.639a1.7 1.7 0 0 0-2.345-.4 1.718 1.718 0 0 0-.4 2.345l3.7 5.639a1.7 1.7 0 0 0 2.346.4 1.718 1.718 0 0 0 .399-2.345z" class="prefix__cls-6" data-name="Path 260" transform="translate(-276.876 -193.912)"/>
                <path id="prefix__Path_261" d="M407.906 423.692a1.723 1.723 0 0 0-2.164-.99l-8.111 2.468a1.692 1.692 0 0 0-.99 2.163 1.72 1.72 0 0 0 2.163.99l8.112-2.467a1.7 1.7 0 0 0 .99-2.164z" class="prefix__cls-6" data-name="Path 261" transform="translate(-274.458 -193.142)"/>
                <path id="prefix__Path_262" d="M422.594 427.515l-.1-.44a1.678 1.678 0 0 0-.495-.7l-4.374-4.665a1.672 1.672 0 0 0-1.227-.387 1.707 1.707 0 0 0-1.142.595 1.688 1.688 0 0 0-.387 1.227l.1.439a1.683 1.683 0 0 0 .5.7q2.187 2.331 4.373 4.665a1.686 1.686 0 0 0 1.229.387 1.682 1.682 0 0 0 1.529-1.822z" class="prefix__cls-6" data-name="Path 262" transform="translate(-271.542 -193.349)"/>
                <path id="prefix__Path_263" d="M434.263 424.608a1.712 1.712 0 0 0-2.164-.99l-5.917 2.194a1.682 1.682 0 0 0 1.173 3.153l5.918-2.194a1.7 1.7 0 0 0 .99-2.163z" class="prefix__cls-6" data-name="Path 263" transform="translate(-269.916 -192.999)"/>
                <path id="prefix__Path_264" d="M448.434 421.9l-5.662-4.612a1.682 1.682 0 0 0-2.162 2.577l5.662 4.612a1.682 1.682 0 0 0 2.162-2.577z" class="prefix__cls-6" data-name="Path 264" transform="translate(-267.538 -194.05)"/>
                <path id="prefix__Path_265" d="M386.712 409.27l-1.239-6.858a1.808 1.808 0 0 0-.595-1.142 1.682 1.682 0 0 0-2.756 1.435l1.239 6.858a1.814 1.814 0 0 0 .595 1.142 1.682 1.682 0 0 0 2.756-1.435z" class="prefix__cls-6" data-name="Path 265" transform="translate(-276.753 -196.601)"/>
                <path id="prefix__Path_266" d="M382.555 343.919A68.613 68.613 0 0 1 356.366 348c-.72-.028-.614 1.09.1 1.117a69.479 69.479 0 0 0 26.482-4.152.561.561 0 0 0-.393-1.046z" data-name="Path 266" transform="translate(-280.926 -205.668)"/>
                <path id="prefix__Path_267" d="M299.94 344.954l-1.662-2.493a.56.56 0 0 0-.915.648l1.662 2.494a.566.566 0 0 0 .781.133.572.572 0 0 0 .134-.782z" data-name="Path 267" transform="translate(-290.25 -205.931)"/>
                <path id="prefix__Path_268" d="M415.533 305.853l-21.9 23.915c-.488.533.372 1.252.859.721l21.9-23.916c.488-.533-.372-1.252-.859-.72z" data-name="Path 268" transform="translate(-274.941 -211.748)"/>
                <g id="prefix__Group_32" data-name="Group 32" transform="translate(101.997)">
                    <path id="prefix__Path_269" d="M425.416 234.363l.052.039a7.8 7.8 0 0 1 8.723 5.426c.762 2.825-.17 5.794-1.209 8.514a5.651 5.651 0 0 1 6.28 1.931 8.7 8.7 0 0 1 1.524 6.661 20.109 20.109 0 0 1-2.457 6.555 58.539 58.539 0 0 1-5.977 8.908c-2.5 3.061-5.492 6.372-5.189 10.326l-.328.118-1.813-5.255s7.842-6.529 5.451-12.06-10.4 0-10.4 0 .328-14.031-5.939-16.5c-6.2-2.456-17.236 8.566-29.756.3l.027-.052c-1.5-.933-2.3-2.785-2.877-4.494a68.763 68.763 0 0 1-1.879-6.621c-.525-2.234-.84-4.847.67-6.582a1.273 1.273 0 0 1 .8-.5 1.517 1.517 0 0 1 .841.262 10.718 10.718 0 0 1 4.151 4.4 22.27 22.27 0 0 1 3.311-8.211c1.143-1.747 3.153-3.493 5.084-2.693a3.963 3.963 0 0 1 2.049 3.232c.2 1.314.066 2.68.381 3.98 1.97-2.653 4.48-5.084 7.62-6.121a3.364 3.364 0 0 1 1.931-.184 2.694 2.694 0 0 1 1.721 2.614 8 8 0 0 1-.894 3.219 19.874 19.874 0 0 1 7.212-4.427 4.108 4.108 0 0 1 3.337-.053 3.025 3.025 0 0 1 1.236 2.943 8.572 8.572 0 0 1-1.2 3.127 15.616 15.616 0 0 1 6.083-4.046c1.025-.381 2.4-.552 3.035.342a2.382 2.382 0 0 1 .079 2.075 7.446 7.446 0 0 1-1.68 2.827z" data-name="Path 269" transform="translate(-379.21 -224.638)"/>
                    <path id="prefix__Path_270" d="M400.037 293.758c-5.058 1.091-10.786.381-14.491-6.108-7.922-13.86-1.983-41.922-1.983-41.922.158.105.3.211.459.3 12.52 8.263 23.556-2.759 29.756-.3 6.267 2.47 5.939 16.5 5.939 16.5s8.013-5.531 10.4 0-5.451 12.06-5.451 12.06l1.813 5.255 4.4 12.743c-8.658 5.032-25.618 15.043-29.494 17.341l-.158-.341-.249-3.233-.3-4.02c7.265-4.519 9.959-13.058 9.959-13.058a31.815 31.815 0 0 1-10.6 4.783z" class="prefix__cls-15" data-name="Path 270" transform="translate(-378.858 -221.341)"/>
                    <path id="prefix__Path_271" d="M408.084 282.99s-2.694 8.539-9.959 13.058l-.643-8.277a31.814 31.814 0 0 0 10.602-4.781z" data-name="Path 271" transform="translate(-376.303 -215.355)"/>
                    <circle id="prefix__Ellipse_8" cx="5.255" cy="5.255" r="5.255" class="prefix__cls-16" data-name="Ellipse 8" transform="translate(22.967 47.391)"/>
                    <path id="prefix__Path_272" d="M419.34 263.26a.715.715 0 0 0-.81.559.7.7 0 0 0 .559.81c.532.045-.418 1.693-.668 1.907-.841.721-1.19-.837-1.237-1.389a5.47 5.47 0 0 1 .622-3.026 1.586 1.586 0 0 1 .739-.786.546.546 0 0 1 .311.016c.163.063.124.046.165.21a.7.7 0 0 0 .895.409.713.713 0 0 0 .41-.895c-.313-1.243-1.955-1.411-2.843-.722a5.241 5.241 0 0 0-1.642 3.387c-.17 1.251-.112 2.88.857 3.815a1.884 1.884 0 0 0 1.662.513 2.442 2.442 0 0 0 1.566-1.218 4.1 4.1 0 0 0 .712-2.048 1.543 1.543 0 0 0-1.298-1.542z" class="prefix__cls-16" data-name="Path 272" transform="translate(-373.395 -219.02)"/>
                    <path id="prefix__Path_273" d="M389.547 255.352l-3.193-1.477a1.392 1.392 0 0 0-1.831 1.8 1.5 1.5 0 0 0 .748.759q1.6.737 3.193 1.477a1.392 1.392 0 0 0 1.823-.741 1.4 1.4 0 0 0 .008-1.065 1.494 1.494 0 0 0-.748-.753z" data-name="Path 273" transform="translate(-378.382 -220.004)"/>
                    <path id="prefix__Path_274" d="M402.1 255.3a1.4 1.4 0 0 0-.72-.764 1.58 1.58 0 0 0-1.08-.032l-3.947 1.123a1.4 1.4 0 0 0-.763.72 1.391 1.391 0 0 0 .687 1.844 1.573 1.573 0 0 0 1.08.031l3.943-1.122a1.4 1.4 0 0 0 .763-.72 1.418 1.418 0 0 0 .037-1.08z" data-name="Path 274" transform="translate(-376.625 -219.899)"/>
                    <ellipse id="prefix__Ellipse_9" cx="2.15" cy="2.704" data-name="Ellipse 9" rx="2.15" ry="2.704" transform="translate(5.855 38.457)"/>
                    <ellipse id="prefix__Ellipse_10" cx="2.15" cy="2.704" data-name="Ellipse 10" rx="2.15" ry="2.704" transform="translate(20.279 39.598)"/>
                    <path id="prefix__Path_275" d="M392.327 262.233a2.97 2.97 0 0 0-2.907.1 12.409 12.409 0 0 0-2.12 1.764 8.669 8.669 0 0 0-2.62 3.113 2.909 2.909 0 0 0-.591 2.185 3.246 3.246 0 0 0 1.871 2.325 5.99 5.99 0 0 0 5.435-.371 6.112 6.112 0 0 0 2.948-4.406 4.56 4.56 0 0 0-2.016-4.71z" class="prefix__cls-16" data-name="Path 275" transform="translate(-378.44 -218.71)"/>
                    <path id="prefix__Path_276" d="M427.832 253.169a.542.542 0 0 0-.626.432 11.671 11.671 0 0 1-1.641 4.706.542.542 0 0 0 .257.716.55.55 0 0 0 .716-.256 12.413 12.413 0 0 0 1.726-4.972.551.551 0 0 0-.432-.626z" class="prefix__cls-9" data-name="Path 276" transform="translate(-371.845 -220.101)"/>
                    <path id="prefix__Path_277" d="M427.958 248.062a.54.54 0 0 0-.75-.127.553.553 0 0 0-.129.75c.01.019.1.185.072.127.027.05.052.1.078.153.059.118.116.24.169.362.111.253.211.51.3.773.042.126.081.254.116.382.029.1.077.289.089.344s.049.243.067.35c.024.14.044.282.063.423a.538.538 0 1 0 1.072-.094 9.351 9.351 0 0 0-1.147-3.443z" class="prefix__cls-9" data-name="Path 277" transform="translate(-371.609 -220.948)"/>
                    <path id="prefix__Path_278" d="M426.459 250.377a.538.538 0 0 0-1.072.094 6.914 6.914 0 0 1 .034 1.565 7.187 7.187 0 0 1-.125.8 6.584 6.584 0 0 1-.2.737.552.552 0 0 0 .257.716.545.545 0 0 0 .716-.256 8.082 8.082 0 0 0 .39-3.656z" class="prefix__cls-9" data-name="Path 278" transform="translate(-371.917 -220.622)"/>
                    <path id="prefix__Path_279" d="M389.873 230.08a.542.542 0 0 0-.758.066 24.67 24.67 0 0 0-2.541 5.065.554.554 0 0 0 .256.716.543.543 0 0 0 .717-.256 23.511 23.511 0 0 1 2.391-4.833.554.554 0 0 0-.065-.758z" class="prefix__cls-9" data-name="Path 279" transform="translate(-378.045 -223.792)"/>
                    <path id="prefix__Path_280" d="M401.056 228.933a.545.545 0 0 0-.75-.127 25.625 25.625 0 0 0-3.474 3.309.543.543 0 0 0 .066.758.549.549 0 0 0 .758-.067 23.837 23.837 0 0 1 3.271-3.121.548.548 0 0 0 .129-.752z" class="prefix__cls-9" data-name="Path 280" transform="translate(-376.427 -223.991)"/>
                    <path id="prefix__Path_281" d="M410.534 229.329a.544.544 0 0 0-.692-.318 9.052 9.052 0 0 0-3.527 3.245.54.54 0 0 0 .257.716.554.554 0 0 0 .716-.256l.02-.031v-.007l.072-.109c.049-.072.1-.143.151-.213q.16-.223.336-.432c.112-.134.227-.264.348-.391.065-.07.132-.138.2-.205l.075-.073.058-.056a8.025 8.025 0 0 1 .806-.649q.224-.158.458-.3c.075-.045.15-.089.226-.132.037-.022.075-.043.114-.064l.024-.014.037-.019a.552.552 0 0 0 .321-.692z" class="prefix__cls-9" data-name="Path 281" transform="translate(-374.907 -223.95)"/>
                    <path id="prefix__Path_282" d="M396.254 275.817a15.479 15.479 0 0 1-10.14-.415.586.586 0 0 1 .408-1.1 14.432 14.432 0 0 0 9.52.361c.721-.218.925.937.212 1.154z" data-name="Path 282" transform="translate(-378.17 -216.744)"/>
                </g>
            </g>
            <path id="prefix__Path_283" d="M269.244 162.138l9.771 87.245 73.726 1.669 16.916-93.905z" class="prefix__cls-14" data-name="Path 283" transform="translate(-269.244 -157.147)"/>
        </g>
    </g>
</svg>
