<svg xmlns="http://www.w3.org/2000/svg" id="prefix__calendar" width="95.272" height="95.273" viewBox="0 0 95.272 95.273">
    <defs>
        <style>
            .prefix__cls-3{fill:#ab2561}.prefix__cls-10{fill:#54d680}
        </style>
    </defs>
    <path id="prefix__Path_309" fill="#edba3b" d="M47.183 98.356a3.631 3.631 0 0 1-4.823 3.435 46.6 46.6 0 1 1 61.322-52.263 5.282 5.282 0 0 1-5.2 6.213H89.8a42.615 42.615 0 0 0-42.617 42.615zm0 0" data-name="Path 309" transform="translate(-9.15 -9.15)"/>
    <g id="prefix__Group_51" data-name="Group 51">
        <path id="prefix__Path_310" fill="#fff5f5" d="M67.869 108.226a20.308 20.308 0 1 1-20.308-20.308 20.308 20.308 0 0 1 20.308 20.308zm0 0" data-name="Path 310" transform="translate(-23.385 -75.436)"/>
        <path id="prefix__Path_311" d="M91.052 30.66H95.4v7.254h-4.348zm-10.575 4.6l3.066 6.575 3.945-1.84-3.066-6.575zm21.559-1.84l-3.066 6.575 3.945 1.84 3.066-6.575zm0 0" class="prefix__cls-3" data-name="Path 311" transform="translate(-69.051 -26.307)"/>
        <path id="prefix__Path_313" fill="#5d7bd1" d="M31.537 6.436l.237-.509a1.451 1.451 0 0 1 1.928-.7l4.208 1.961a1.451 1.451 0 0 1 .7 1.928l-.237.509a1.451 1.451 0 0 1-1.928.7l-4.206-1.961a1.451 1.451 0 0 1-.702-1.928zM21.856 5.8H26.5a1.451 1.451 0 0 0 1.45-1.447v-2.9A1.451 1.451 0 0 0 26.5 0h-4.644A1.451 1.451 0 0 0 20.4 1.451v2.9A1.451 1.451 0 0 0 21.856 5.8zM9.979 9.624a1.451 1.451 0 0 0 1.928.7l4.208-1.963a1.45 1.45 0 0 0 .7-1.928l-.237-.509a1.451 1.451 0 0 0-1.928-.7l-4.207 1.964a1.45 1.45 0 0 0-.7 1.928zM48.354 32.79A24.177 24.177 0 1 1 24.177 8.613 24.177 24.177 0 0 1 48.354 32.79zm-7.11 0a17.067 17.067 0 1 0-17.067 17.066A17.067 17.067 0 0 0 41.244 32.79zm0 0" data-name="Path 313"/>
        <path id="prefix__Path_314" fill="#4772f0" d="M138.338 83.73a24.189 24.189 0 0 1-30.869 24.344 3.556 3.556 0 0 1 1.953-6.838 17.067 17.067 0 1 0 .046-32.795 3.56 3.56 0 0 1-4.566-3.406 3.562 3.562 0 0 1 2.575-3.421 24.187 24.187 0 0 1 30.861 22.116zm0 0" data-name="Path 314" transform="translate(-90.009 -52.054)"/>
        <path id="prefix__Path_315" d="M98.436 208.461v5.393a.581.581 0 0 1-.714.565l-11.406-2.7a.58.58 0 0 1 0-1.13l11.406-2.7a.58.58 0 0 1 .714.572zm0 0" class="prefix__cls-3" data-name="Path 315" transform="translate(-73.678 -178.368)"/>
        <path id="prefix__Path_316" fill="#ff6466" d="M101.953 133.072a3.865 3.865 0 1 1-3.865-3.864 3.865 3.865 0 0 1 3.865 3.864zm-3.865-12.821a1.688 1.688 0 1 0-1.688-1.688 1.688 1.688 0 0 0 1.688 1.688zm0 25.641a1.688 1.688 0 1 0 1.689 1.688 1.688 1.688 0 0 0-1.689-1.687zm-11.453-24.273a1.689 1.689 0 1 0 2.388 0 1.69 1.69 0 0 0-2.388 0zm20.519 20.519a1.688 1.688 0 1 0 2.388 0 1.688 1.688 0 0 0-2.388 0zm-20.519 0a1.688 1.688 0 1 0 2.388 0 1.689 1.689 0 0 0-2.388 0zm22.906-18.131a1.688 1.688 0 1 0-2.387 0 1.688 1.688 0 0 0 2.387-.001zm0 0" data-name="Path 316" transform="translate(-73.911 -100.282)"/>
    </g>
    <g id="prefix__Group_50" data-name="Group 50">
        <path id="prefix__Path_317" fill="#97f0f2" d="M175.777 245.27h9.128v45.514a3 3 0 0 1-3.663 2.926 46 46 0 0 1-5.465-1.619zm0 0" data-name="Path 317" transform="translate(-143.069 -199.63)"/>
        <path id="prefix__Path_318" fill="#c0fbff" d="M204.391 245.27h57.138c.065 1.006.1 2.02.1 3.043a46.626 46.626 0 0 1-57.24 45.366zm0 0" data-name="Path 318" transform="translate(-166.358 -199.63)"/>
        <path id="prefix__Path_319" fill="#02cc69" d="M186.807 226.02h-11.03v-8.557a2.853 2.853 0 0 1 2.852-2.853h8.177zm0 0" data-name="Path 319" transform="translate(-143.069 -174.675)"/>
        <path id="prefix__Path_320" d="M207.243 214.609h53.564a46.815 46.815 0 0 1 .824 8.748c0 .894-.028 1.781-.077 2.663h-57.163v-8.557a2.853 2.853 0 0 1 2.852-2.854zm0 0" class="prefix__cls-10" data-name="Path 320" transform="translate(-166.358 -174.675)"/>
        <path id="prefix__Path_321" fill="#008c6c" d="M230.537 186.805v9.508a.951.951 0 0 1-.951.951h-3.8a.951.951 0 0 1-.951-.951v-9.508a2.852 2.852 0 1 1 5.7 0zm40.886-2.852a2.853 2.853 0 0 0-2.853 2.852v9.508a.951.951 0 0 0 .951.951h3.8a.951.951 0 0 0 .951-.951v-9.508a2.852 2.852 0 0 0-2.85-2.852zm0 0" data-name="Path 321" transform="translate(-182.995 -149.723)"/>
        <path id="prefix__Path_322" fill="#00a972" d="M230.537 186.8v3.423a2.852 2.852 0 1 1-5.7 0v-3.342a2.906 2.906 0 0 1 2.714-2.93 2.853 2.853 0 0 1 2.986 2.849zm40.748-2.849a2.906 2.906 0 0 0-2.715 2.93v3.342a2.853 2.853 0 1 0 5.705 0V186.8a2.853 2.853 0 0 0-2.991-2.845zm0 0" data-name="Path 322" transform="translate(-182.995 -149.722)"/>
        <path id="prefix__Path_323" d="M277.6 296.367h7.6a1.9 1.9 0 0 1 1.9 1.9v7.607a1.9 1.9 0 0 1-1.9 1.9h-7.6a1.9 1.9 0 0 1-1.9-1.9v-7.607a1.9 1.9 0 0 1 1.9-1.9zm-29.286 40.125a46.873 46.873 0 0 0 8.367-.751V328.7a1.9 1.9 0 0 0-1.9-1.9h-7.607a1.9 1.9 0 0 0-1.9 1.9v7.695c1.002.061 2.016.097 3.038.097zm0 0" class="prefix__cls-10" data-name="Path 323" transform="translate(-199.63 -241.219)"/>
        <path id="prefix__Path_324" fill="#46e093" d="M271.893 298.269v7.607a1.9 1.9 0 0 1-1.9 1.9h-7.607a1.9 1.9 0 0 1-1.9-1.9v-7.607a1.9 1.9 0 0 1 1.9-1.9h7.607a1.9 1.9 0 0 1 1.9 1.9zm13.307 13.312h-7.6a1.9 1.9 0 0 0-1.9 1.9v7.607a1.9 1.9 0 0 0 1.9 1.9h3.511a46.81 46.81 0 0 0 6-7.283v-2.225a1.9 1.9 0 0 0-1.911-1.899zm-15.213 0h-7.607a1.9 1.9 0 0 0-1.9 1.9v7.607a1.9 1.9 0 0 0 1.9 1.9h7.607a1.9 1.9 0 0 0 1.9-1.9v-7.607a1.9 1.9 0 0 0-1.896-1.9zm-15.213-15.213h-7.607a1.9 1.9 0 0 0-1.9 1.9v7.607a1.9 1.9 0 0 0 1.9 1.9h7.607a1.9 1.9 0 0 0 1.9-1.9v-7.607a1.9 1.9 0 0 0-1.896-1.901zm15.213 30.426h-7.607a1.9 1.9 0 0 0-1.9 1.9v6.187a46.314 46.314 0 0 0 11.41-4.794V328.7a1.9 1.9 0 0 0-1.899-1.907zm-15.213-15.213h-7.607a1.9 1.9 0 0 0-1.9 1.9v7.607a1.9 1.9 0 0 0 1.9 1.9h7.607a1.9 1.9 0 0 0 1.9-1.9v-7.607a1.9 1.9 0 0 0-1.896-1.9zm0 0" data-name="Path 324" transform="translate(-199.63 -241.219)"/>
    </g>
</svg>
