<svg xmlns="http://www.w3.org/2000/svg" width="16.476" height="16.372" viewBox="0 0 16.476 16.372">
    <path id="prefix__Path_406" fill="#606060" d="M3.563 19.226a1.564 1.564 0 0 1-1.052-2.72l7.225-6.648-.794-.775-.274.274a1.384 1.384 0 0 1-1.312.375 1.479 1.479 0 0 1-1.038-1.12 1.413 1.413 0 0 1 .341-1.362 16.578 16.578 0 0 1 4.028-4.028 1.431 1.431 0 0 1 1.948.029l.4.4a.408.408 0 0 1 .1.15 1.345 1.345 0 0 1-.313 1.4l-.3.3 3.26 3.26.27-.27a1.378 1.378 0 0 1 1.423-.341 1.5 1.5 0 0 1 .588 2.448 16.589 16.589 0 0 1-4.028 4.028 1.5 1.5 0 0 1-2.448-.587 1.375 1.375 0 0 1 .341-1.423l.27-.27-.858-.858-6.621 7.229a1.551 1.551 0 0 1-1.119.509zM8.939 8.1a.408.408 0 0 1 .288.119l1.087 1.086a.8.8 0 0 1-.027 1.152l-7.226 6.65a.749.749 0 0 0-.027 1.084.723.723 0 0 0 .546.219.741.741 0 0 0 .536-.244l6.649-7.228a.8.8 0 0 1 .569-.258.772.772 0 0 1 .582.233l1.147 1.147a.408.408 0 0 1 0 .577l-.559.559a.558.558 0 0 0-.149.572.687.687 0 0 0 1.133.256.406.406 0 0 1 .06-.049 15.908 15.908 0 0 0 3.86-3.86.394.394 0 0 1 .049-.06.687.687 0 0 0-.257-1.136.558.558 0 0 0-.572.149l-.558.558a.42.42 0 0 1-.577 0l-3.834-3.835a.408.408 0 0 1 0-.577l.584-.584a.527.527 0 0 0 .144-.473l-.329-.329a.6.6 0 0 0-.824 0 .406.406 0 0 1-.06.049 15.894 15.894 0 0 0-3.86 3.86.4.4 0 0 1-.049.06.608.608 0 0 0-.163.588.726.726 0 0 0 .458.558.57.57 0 0 0 .532-.162l.558-.559a.408.408 0 0 1 .289-.122z" data-name="Path 406" transform="translate(-2 -2.854)"/>
</svg>
