<svg xmlns="http://www.w3.org/2000/svg" id="prefix__map" width="13.065" height="15.55" viewBox="0 0 13.065 15.55">
    <defs>
        <style>
            .prefix__cls-1{fill:#606060}
        </style>
    </defs>
    <path id="prefix__Path_338" d="M6.412 15.527C6.348 15.5 0 12.887 0 6.532a6.532 6.532 0 1 1 13.065 0c0 6.355-6.348 8.969-6.412 8.994a.323.323 0 0 1-.24 0zM6.532.641A5.9 5.9 0 0 0 .641 6.532c0 5.458 5.045 7.965 5.891 8.347.845-.383 5.891-2.9 5.891-8.347A5.9 5.9 0 0 0 6.532.641z" class="prefix__cls-1" data-name="Path 338"/>
    <path id="prefix__Path_339" d="M14.43 17.236a2.805 2.805 0 1 1 2.805-2.805 2.805 2.805 0 0 1-2.805 2.805zm0-4.969a2.164 2.164 0 1 0 2.164 2.164 2.164 2.164 0 0 0-2.164-2.164z" class="prefix__cls-1" data-name="Path 339" transform="translate(-7.898 -7.898)"/>
</svg>
