<svg xmlns="http://www.w3.org/2000/svg" width="92.914" height="99" viewBox="0 0 92.914 99">
    <g id="prefix__ok">
        <path id="prefix__Path_325" fill="#edba3b" d="M92.914 57.7a46.457 46.457 0 1 1-46.457-46.458A46.457 46.457 0 0 1 92.914 57.7zm0 0" data-name="Path 325" transform="translate(0 -9.157)"/>
        <path id="prefix__Path_326" fill="#5d7bd1" d="M65.807 53.942v2.509a2.844 2.844 0 1 1-5.688 0v-2.509a2.844 2.844 0 1 1 5.688 0zM50.44 57.013a2.844 2.844 0 0 0-4.357 3.657l1.9 2.268a2.844 2.844 0 0 0 4.358-3.656zM43.849 70.1l-3.715-.655a2.844 2.844 0 1 0-.988 5.6l3.714.655a2.844 2.844 0 1 0 .989-5.6zm0 0" data-name="Path 326" transform="translate(-29.969 -41.617)"/>
        <path id="prefix__Path_327" fill="#ffdfcf" d="M159.949 11l-1.939 19.7a3.507 3.507 0 0 1-.391 1.333 3.448 3.448 0 0 1-.125.438l-8.383 20.891v20.59H124.46v-9.036a10.344 10.344 0 0 0-7.666-9.991A13.381 13.381 0 0 1 106.876 42v-4.018a2.641 2.641 0 0 1 2.641-2.641 6.163 6.163 0 0 1 6.163 6.159v.37a4.742 4.742 0 1 0 9.485 0V36.4a6.07 6.07 0 0 0-2.813-5.122 5 5 0 0 0-5.891.388l-.556.466a6.163 6.163 0 0 1-8.682-.76 2.642 2.642 0 0 1 .326-3.721l3.562-2.989a13.191 13.191 0 0 1 15.465-1.084l3.989 2.491a.958.958 0 0 0 .509.146.96.96 0 0 0 .96-.957v-.039a13.042 13.042 0 0 0-.444-3.409l-4.019-14.17a6.162 6.162 0 0 1 4.358-7.55 2.641 2.641 0 0 1 3.235 1.868l4.5 16.042a.176.176 0 0 0 .345-.062l-.757-8.719a6.163 6.163 0 0 1 5.6-6.676 2.641 2.641 0 0 1 2.861 2.4l1.694 19.424a.176.176 0 0 0 .35 0l1.114-10.636a6.163 6.163 0 0 1 6.677-5.6A2.641 2.641 0 0 1 159.949 11zm0 0" data-name="Path 327" transform="translate(-86.825)"/>
        <path id="prefix__Path_328" fill="#ffc9c0" d="M158.553 8.515c-2.253.757-3.369 2.3-4.755 5.14L150.606 27.5c-.022.212-1.132.051-1.15-.161l1.353-13.456a6.523 6.523 0 0 1 .8-2.547 6.241 6.241 0 0 1 5.94-3.112 2.634 2.634 0 0 1 1.004.291zm-33.39 27.964v5.477a4.737 4.737 0 0 1-2.984 4.405 4.717 4.717 0 0 0 6.488-4.405v-5.477a6.07 6.07 0 0 0-2.813-5.122 4.991 4.991 0 0 0-4.434-.46 4.994 4.994 0 0 1 .93.46 6.07 6.07 0 0 1 2.813 5.122zm19.688-33.851c-.094.008-.653.105-.746.117a5.891 5.891 0 0 0-4.877 5.826l1.429 17.544c.058.206 1.022.181 1-.032l.691-16.745c.6-2.957 1.768-5.276 4.2-6.273a2.634 2.634 0 0 0-1.697-.437zm-23.584 49.563c-5.851-1.568-10.395-6.87-10.395-12.926 0 0-.718-3.842-1.356-3.842a2.641 2.641 0 0 0-2.641 2.641v4.018a13.383 13.383 0 0 0 9.918 12.926A10.342 10.342 0 0 1 124.459 65v9.035h4.474V62.181a10.342 10.342 0 0 0-7.666-9.99zM132.74.1a2.661 2.661 0 0 0-.818.086 6.164 6.164 0 0 0-4.357 7.548l3.025 18.428 1.221.685a.965.965 0 0 0 .509.146.96.96 0 0 0 .96-.957V26c0-1.15-1.242-21.079-1.242-21.079A6.147 6.147 0 0 1 132.74.1zm-24.348 32.425a22.425 22.425 0 0 1 2.685-3.383s7.844-7.044 10.266-7.368a13.187 13.187 0 0 0-10.233 2.967l-3.563 2.99a2.641 2.641 0 0 0-.325 3.721 6.182 6.182 0 0 0 1.17 1.073zm0 0" data-name="Path 328" transform="translate(-86.823 -.082)"/>
        <path id="prefix__Path_329" fill="#ff393a" d="M204.072 350.313v9.481a2.844 2.844 0 0 1-2.086 2.739v15.284a46.644 46.644 0 0 1-32.615 2.239v-17.523a2.844 2.844 0 0 1-2.086-2.739v-9.481a2.844 2.844 0 0 1 2.845-2.844h31.1a2.843 2.843 0 0 1 2.842 2.844zm0 0" data-name="Path 329" transform="translate(-136.246 -282.997)"/>
        <path id="prefix__Path_330" fill="#ff6466" d="M207.02 368.324h23.265v9.492A46.276 46.276 0 0 1 211 381.994a46.8 46.8 0 0 1-6.826-.5v-10.326a2.844 2.844 0 0 1 2.846-2.844zm22.506-20.859h-24.65a2.845 2.845 0 0 0-2.845 2.845v9.481a2.845 2.845 0 0 0 2.845 2.844h24.65a2.844 2.844 0 0 0 2.845-2.844v-9.481a2.845 2.845 0 0 0-2.845-2.845zm0 0" data-name="Path 330" transform="translate(-164.545 -282.994)"/>
        <path id="prefix__Path_331" fill="#ffeee6" d="M159.947 11l-.263 2.673a1.756 1.756 0 0 1-1.484.531l-1.747-.214a1.76 1.76 0 0 1-1.534-1.961l.214-1.748a3.5 3.5 0 0 1 1.056-2.11 6.18 6.18 0 0 1 1.358-.032 2.641 2.641 0 0 1 2.4 2.861zm-50.28 24.346h-.151a2.641 2.641 0 0 0-2.641 2.641v3.561a1.746 1.746 0 0 0 .681.137h1.761a1.761 1.761 0 0 0 1.761-1.761v-1.766a3.515 3.515 0 0 0-1.411-2.813zm35.184-32.8a6.035 6.035 0 0 0-.673.1 3.52 3.52 0 0 0-1.484 3.319l.215 1.747a1.761 1.761 0 0 0 1.963 1.533l1.747-.215a1.759 1.759 0 0 0 1.365-.97l-.272-3.111a2.64 2.64 0 0 0-2.861-2.4zm-33.877 23.991a1.757 1.757 0 0 0-1.479-.523l-1.949 1.635a2.641 2.641 0 0 0-.325 3.72 6.175 6.175 0 0 0 1.251 1.131 3.508 3.508 0 0 0 2.415-.985l1.266-1.223a1.762 1.762 0 0 0 .043-2.49zM131.927.09l-.127.038A3.512 3.512 0 0 0 131.374 3l.486 1.692a1.76 1.76 0 0 0 2.178 1.208l1.692-.486a1.759 1.759 0 0 0 .36-.149l-.928-3.309A2.642 2.642 0 0 0 131.927.09zm0 0" data-name="Path 331" transform="translate(-86.823)"/>
    </g>
</svg>
