<svg xmlns="http://www.w3.org/2000/svg" width="14.492" height="19.01" viewBox="0 0 14.492 19.01">
    <path id="prefix__Path_409" fill="#606060" d="M24.644 24.885c-2.6 0-3.9-1.308-5.41-2.822l-.261-.262c-1.59-1.59-2.7-2.833-2.714-2.845a1.753 1.753 0 0 1 2.491-2.466l1.228 1.279-.193-9a1.519 1.519 0 0 1 1.5-1.609 1.446 1.446 0 0 1 1.244.688l.012-.482a1.444 1.444 0 1 1 2.887.008V7.9a1.53 1.53 0 0 1 2.688.965l-.048 1.657a1.282 1.282 0 0 1 2.189.906v.025c0 .008-.213 2.67-.427 5.446l-.071.96c-.156 2.133-.227 3.106-.816 4.284a4.21 4.21 0 0 1-4.299 2.742zm-7.13-8.268a1.1 1.1 0 0 0-.783.326 1.115 1.115 0 0 0-.329.788 1.1 1.1 0 0 0 .323.785c.023.025 1.125 1.255 2.7 2.832l.263.263c1.463 1.471 2.618 2.633 4.956 2.633a3.581 3.581 0 0 0 3.72-2.386 9.991 9.991 0 0 0 .75-4.044c.022-.3.045-.617.072-.963.2-2.66.409-5.223.426-5.434a.641.641 0 0 0-1.282.012.3.3 0 0 1 0 .031l-.43 4.378a.327.327 0 0 1-.339.289.32.32 0 0 1-.3-.33l.214-6.942a.854.854 0 0 0-.855-.845.905.905 0 0 0-.908.854l-.267 5.3a.379.379 0 0 1-.332.358c-.174 0-.333-.254-.333-.427V7.37a.8.8 0 0 0-.789-.854.828.828 0 0 0-.822.854l-.182 7.43a.322.322 0 1 1-.638 0l-.213-6a.889.889 0 0 0-.855-.986.867.867 0 0 0-.855.955l.21 9.815a.32.32 0 0 1-.551.226l-1.792-1.868a1.1 1.1 0 0 0-.779-.325z" data-name="Path 409" transform="translate(-15.76 -5.875)"/>
</svg>
