<svg xmlns="http://www.w3.org/2000/svg" width="101" height="95" viewBox="0 0 101 95">
    <g id="prefix__Secure" transform="translate(6)">
        <path id="prefix__Path_285" fill="#f5c02c" d="M93.636 57.7A46.461 46.461 0 0 1 8.658 83.677a53.434 53.434 0 0 1-6.936-17.634 52.361 52.361 0 0 1-.53-14.981A46.46 46.46 0 0 1 93.636 57.7zm0 0" data-name="Path 285" transform="translate(-.722 -9.156)"/>
        <path id="prefix__Path_286" fill="#00b96f" d="M305.575 6.664a22.755 22.755 0 1 1-32.18 0 22.755 22.755 0 0 1 32.18 0zm0 0" data-name="Path 286" transform="translate(-217.239)"/>
        <path id="prefix__Path_287" fill="#54d680" d="M325.393 6.668a22.758 22.758 0 0 1 2.1 29.764A22.755 22.755 0 0 1 295.629 4.57a22.758 22.758 0 0 1 29.764 2.098zm0 0" data-name="Path 287" transform="translate(-237.057 -.004)"/>
        <path id="prefix__Path_288" fill="#ffe49f" d="M360.02 43.829l-18.5 18.5a3.344 3.344 0 0 1-4.73 0l-9.211-9.21a3.345 3.345 0 0 1 4.73-4.731l6.846 6.846L355.291 39.1a3.344 3.344 0 1 1 4.729 4.73zm0 0" data-name="Path 288" transform="translate(-266 -31.046)"/>
        <path id="prefix__Path_289" fill="#fff5f5" d="M371.362 39.1a3.343 3.343 0 0 1 0 4.729l-15.917 15.914a3.344 3.344 0 0 1-4.73 0l-9.215-9.211a3.342 3.342 0 0 1-.907-3.054 3.342 3.342 0 0 1 3.054.907l6.846 6.846L366.632 39.1a3.344 3.344 0 0 1 4.73 0zm0 0" data-name="Path 289" transform="translate(-277.342 -31.043)"/>
        <path id="prefix__Path_290" fill="#ffdfcf" d="M172.931 130.191a.508.508 0 0 0 0 .894 3.791 3.791 0 0 1 2.008 3.346v1.9a3.789 3.789 0 0 1-2.008 3.345.508.508 0 0 0 0 .894 3.791 3.791 0 0 1 2.008 3.346v1.9a3.789 3.789 0 0 1-2.008 3.345.508.508 0 0 0 0 .894 3.791 3.791 0 0 1 2.008 3.346v1.9a3.792 3.792 0 0 1-3.793 3.792H150.9a13.1 13.1 0 0 1-7.907-2.654 13.1 13.1 0 0 0-7.908-2.655H119.57v-24.663h13.455a7.585 7.585 0 0 0 6.569-3.792l6.415-11.112a5.69 5.69 0 0 0 .762-2.845v-6.333a2.844 2.844 0 0 1 2.845-2.844 6.637 6.637 0 0 1 6.636 6.637v3.574a11.378 11.378 0 0 1-1.537 5.711l-1.269 2.185a.569.569 0 0 0 .492.855h17.209a3.793 3.793 0 0 1 3.793 3.793v1.9a3.789 3.789 0 0 1-2.009 3.341zm0 0" data-name="Path 290" transform="translate(-97.384 -83.233)"/>
        <path id="prefix__Path_291" fill="#ffeee6" d="M269.689 102.954v3.792a1.9 1.9 0 0 1-1.9 1.9h-1.621v-3.6a2.844 2.844 0 0 1 2.844-2.844c.177 0 .352.009.525.022a1.9 1.9 0 0 1 .152.73zm0 0" data-name="Path 291" transform="translate(-216.785 -83.233)"/>
        <path id="prefix__Path_292" fill="#ffc9c0" d="M159.769 236.947a1.9 1.9 0 0 1 1.9-1.9h13.274a3.789 3.789 0 0 1-2.008 3.345.506.506 0 0 0-.267.447h-11a1.9 1.9 0 0 1-1.899-1.892zm11.377 24.272H150.9a13.1 13.1 0 0 1-7.907-2.655 13.1 13.1 0 0 0-7.908-2.655H119.57v6.068h15.511a13.1 13.1 0 0 1 7.908 2.655 13.1 13.1 0 0 0 7.907 2.654h20.251a3.792 3.792 0 0 0 3.793-3.792v-1.9a3.76 3.76 0 0 0-.629-2.082 3.79 3.79 0 0 1-3.164 1.707zm-11.377-5.31a1.9 1.9 0 0 0 1.9 1.9h11a.506.506 0 0 1 .267-.447 3.789 3.789 0 0 0 2.008-3.345h-13.278a1.9 1.9 0 0 0-1.897 1.892zm0-9.481a1.9 1.9 0 0 0 1.9 1.9h11a.506.506 0 0 1 .267-.447 3.789 3.789 0 0 0 2.008-3.345h-13.278a1.9 1.9 0 0 0-1.897 1.892zm0 0" data-name="Path 292" transform="translate(-97.384 -191.438)"/>
        <path id="prefix__Path_293" fill="#ff393a" d="M29.77 217.454v31.1a2.844 2.844 0 0 1-2.844 2.844h-9.481a2.844 2.844 0 0 1-2.739-2.086H1.936A46.242 46.242 0 0 1-6 223.332a46.83 46.83 0 0 1 .474-6.637h20.232a2.844 2.844 0 0 1 2.739-2.086h9.481a2.844 2.844 0 0 1 2.844 2.845zm0 0" data-name="Path 293" transform="translate(0 -174.789)"/>
        <path id="prefix__Path_294" fill="#ff6466" d="M-6 223.332a46.832 46.832 0 0 1 .47-6.637H8.912v23.265a2.844 2.844 0 0 1-2.844 2.84h-7.8A46.279 46.279 0 0 1-6 223.332zm20.6-5.878V242.1a2.844 2.844 0 0 0 2.844 2.845h9.481a2.844 2.844 0 0 0 2.845-2.845v-24.65a2.844 2.844 0 0 0-2.844-2.845h-9.481a2.844 2.844 0 0 0-2.845 2.849zm0 0" data-name="Path 294" transform="translate(0 -174.789)"/>
    </g>
</svg>
