<svg xmlns="http://www.w3.org/2000/svg" width="136.255" height="136" viewBox="0 0 136.255 136">
    <defs>
        <style>
            .prefix__cls-4{fill:#efeff0}.prefix__cls-5{fill:#e7e7e8}.prefix__cls-6{fill:#ff5a57}.prefix__cls-7{fill:#da3b38}
        </style>
    </defs>
    <g id="prefix__Group_104" data-name="Group 104" transform="translate(-196 -811)">
        <circle id="prefix__Ellipse_22" cx="68" cy="68" r="68" fill="#bccdff" data-name="Ellipse 22" transform="translate(196 811)"/>
        <g id="prefix__uk" transform="translate(200.226 812.948)">
            <path id="prefix__Path_370" fill="#1881ee" d="M74.652 28.052L52.8 109.616c34.008 2.854 64.408 19.375 96.812 28.3q1.636-1.411 3.178-2.924c3.218-3.157-4.075-15.153-1.545-18.9 1.874-2.778 13.738 2.812 15.185-.241q.623-1.316 1.192-2.663c1.736-4.122-5.983-11.024-5.1-15.517.829-4.209 7.69-5.989 7.69-10.441 0-.637 2.619-1.273 2.6-1.908q-.02-.714-.055-1.425c-.187-3.806-5.3-6.489-6.094-10.1-.837-3.795 2.608-8.506 1.157-12.029a66.8 66.8 0 0 0-4.178-8.405c-29.175-9.122-57.08-23.057-87.922-25.863q-.538.269-1.068.552zm0 0" data-name="Path 370" transform="translate(-40.809 -20.308)"/>
            <path id="prefix__Path_371" fill="#0a549a" d="M89.033 29.151a137.816 137.816 0 0 0-14.21-1.968L52.8 109.385a137.875 137.875 0 0 1 14.211 1.968zm0 0" data-name="Path 371" transform="translate(-40.809 -20.078)"/>
            <path id="prefix__Path_372" d="M167.819 61.768c-12.5 3.923-25.173 7.225-37.892 10.434-11.105-14.232-22.237-28.441-34.539-41.674A158.819 158.819 0 0 0 75.72 27.5q-.538.273-1.068.556l-3.343 12.479c13.239 11.238 24.647 24.24 35.6 37.665A327.833 327.833 0 0 0 56.31 96.506l-3.513 13.112a155.645 155.645 0 0 1 20.385 3.267c16.239-5.726 33.034-10.241 49.717-14.451 9.688 12.419 19.4 24.818 29.884 36.566a67.108 67.108 0 0 0 13.64-19.144c-7.2-7.461-13.935-15.358-20.509-23.412 9.077-2.54 18.029-5.348 26.844-8.537a66.571 66.571 0 0 0-4.939-22.139zm0 0" class="prefix__cls-4" data-name="Path 372" transform="translate(-40.809 -20.308)"/>
            <path id="prefix__Path_373" d="M141.361 29.052c-4.709-.837-9.428-1.471-14.237-1.869L123.609 40.3c4.1 3.48 8.024 7.131 11.815 10.91zm0 0" class="prefix__cls-5" data-name="Path 373" transform="translate(-93.11 -20.078)"/>
            <path id="prefix__Path_374" d="M72.949 264.715c-5.606 2.185-11.155 4.537-16.64 7.1L52.8 284.921c4.809.4 9.53 1.072 14.24 1.91zm0 0" class="prefix__cls-5" data-name="Path 374" transform="translate(-40.809 -195.515)"/>
            <path id="prefix__Path_375" d="M130.328 33.743c16.508 14.017 30.238 30.77 43.619 47.707 4.884 1.8 9.748 3.648 14.621 5.473-16.071-20.58-31.876-41.6-51.234-59.265-2.087-.235-3.136-.332-5.247-.476l-1.759 6.561zm0 0" class="prefix__cls-6" data-name="Path 375" transform="translate(-98.073 -20.078)"/>
            <path id="prefix__Path_376" d="M144.787 34.788q-3.644-3.642-7.453-7.129c-2.087-.235-3.136-.332-5.247-.476-.7 2.624-1.055 3.937-1.758 6.56 4.1 3.479 8.024 7.128 11.817 10.9zm0 0" class="prefix__cls-7" data-name="Path 376" transform="translate(-98.073 -20.078)"/>
            <path id="prefix__Path_377" d="M357.722 279.431c-9.739-10.213-18.647-21.218-27.4-32.305-4.883-1.8-9.748-3.649-14.622-5.473 11.96 15.314 23.771 30.872 37.01 45.109a67.188 67.188 0 0 0 5.012-7.331zm0 0" class="prefix__cls-6" data-name="Path 377" transform="translate(-234.982 -178.481)"/>
            <path id="prefix__Path_378" d="M121.7 234.922c-23.251 5.923-46.053 12.671-67.849 22.838l-.883 3.3q5.219.358 10.393 1.163c19.958-8.084 40.629-13.68 61.466-18.9l-3.127-8.401zm0 0" class="prefix__cls-6" data-name="Path 378" transform="translate(-40.933 -173.51)"/>
            <path id="prefix__Path_379" d="M60.028 304.247l2.6-9.743c-5.6 2.167-11.792 4.682-17.275 7.24-.353 1.318-3.357 3.188-3.71 4.507 3.61.723 6.357 1.012 10.041 1.458 1.504-.609 6.838-2.883 8.344-3.462zm0 0" class="prefix__cls-7" data-name="Path 379" transform="translate(-32.575 -217.516)"/>
            <path id="prefix__Path_380" d="M383.214 185.348c-13.385 4.331-28.492 8.4-42.085 11.827q1.562 4.2 3.128 8.394c13.211-3.365 27.847-7.5 40.774-11.9a66.477 66.477 0 0 0-1.817-8.321zm0 0" class="prefix__cls-6" data-name="Path 380" transform="translate(-253.767 -136.895)"/>
            <path id="prefix__Path_381" d="M171.555 82.6c-8.944-3.155-17.825-6.548-26.768-9.7-2.322 8.666-5.1 19.018-7.314 27.3-16.045-5.718-32.207-10.422-49.248-11.844l-7.342 27.4c17.041 1.422 33.2 6.126 49.248 11.844-2.236 8.345-5.036 18.8-7.371 27.506 8.944 3.155 17.824 6.549 26.768 9.7l7.314-27.3a241.144 241.144 0 0 0 31.519 9.214 66.716 66.716 0 0 0 5.221-25.958c0-.637-.011-1.273-.029-1.906a248.528 248.528 0 0 1-29.369-8.75l7.371-27.506zm0 0" class="prefix__cls-4" data-name="Path 381" transform="translate(-61.553 -53.839)"/>
            <path id="prefix__Path_382" d="M102.444 133.934A142.525 142.525 0 0 0 88.225 132l-7.342 27.4a142.223 142.223 0 0 1 14.22 1.935zm0 0" class="prefix__cls-5" data-name="Path 382" transform="translate(-61.553 -97.493)"/>
            <path id="prefix__Path_383" d="M197.618 130.046c-12.277-2.636-24.207-6.624-36.1-11l8.828-32.946c-5.354-1.939-10.695-3.928-16.048-5.868-2.8 10.444-6.084 22.7-8.793 32.816-17.772-6.542-35.628-12.22-54.6-13.8L86.5 115.685c18.969 1.582 36.826 7.26 54.6 13.8l-8.828 32.946c5.354 1.939 10.695 3.927 16.048 5.867 2.8-10.444 6.083-22.7 8.793-32.815 12.31 4.531 24.66 8.646 37.392 11.275a66.724 66.724 0 0 0 3.113-16.712zm0 0" class="prefix__cls-6" data-name="Path 383" transform="translate(-65.702 -59.257)"/>
            <path id="prefix__Path_384" d="M105.124 154.9a141.2 141.2 0 0 0-14.219-1.939L86.5 169.405a141.156 141.156 0 0 1 14.219 1.939zm0 0" class="prefix__cls-7" data-name="Path 384" transform="translate(-65.702 -112.978)"/>
            <g id="prefix__Group_108" data-name="Group 108">
                <path id="prefix__Path_385" fill="#ac825a" d="M61.345 3.919a3.911 3.911 0 0 1-.137 1.02l-.17.632-27.084 101.081q-1.536-2.079-2.912-4.277-1.478-2.36-2.76-4.851l23.275-86.863 2.078-7.754a3.922 3.922 0 0 1 7.71 1.012zm0 0" data-name="Path 385" transform="translate(-22.702)"/>
                <path id="prefix__Path_386" fill="#816244" d="M58.438.134l-2.063 7.7-25.334 94.541q-1.478-2.36-2.76-4.851l23.276-86.863 2.078-7.754a3.922 3.922 0 0 1 4.8-2.773zm0 0" data-name="Path 386" transform="translate(-22.702)"/>
            </g>
        </g>
    </g>
</svg>
