<svg xmlns="http://www.w3.org/2000/svg" id="prefix__Layer_2" width="40" height="40" data-name="Layer 2" viewBox="0 0 40 40">
    <g id="prefix__Black_Icon" data-name="Black Icon">
        <g id="prefix___44_GitHub" data-name="44.GitHub">
            <path id="prefix__Icon" fill="#aaa" d="M36.842 0H3.158A3.158 3.158 0 0 0 0 3.158v33.684A3.158 3.158 0 0 0 3.158 40h33.684A3.158 3.158 0 0 0 40 36.842V3.158A3.158 3.158 0 0 0 36.842 0zM23.195 23.568a3.252 3.252 0 0 1 .942 2.537c0 1.842-.018 3.308-.018 3.753 0 .361.155.65.958.65l-8.784.018c.75 0 .953-.295.953-.658s0-1.189-.016-2.332c-3.879.826-4.7-1.842-4.7-1.842a3.668 3.668 0 0 0-1.553-2.005c-1.263-.85.1-.832.1-.832a2.919 2.919 0 0 1 2.137 1.411 2.992 2.992 0 0 0 4.061 1.139 2.9 2.9 0 0 1 .884-1.842c-3.1-.342-6.353-1.521-6.353-6.771a5.242 5.242 0 0 1 1.437-3.684 4.783 4.783 0 0 1 .121-3.626s1.168-.368 3.834 1.405a13.358 13.358 0 0 1 6.974 0c2.65-1.774 3.818-1.405 3.818-1.405a4.922 4.922 0 0 1 .139 3.626 5.263 5.263 0 0 1 1.429 3.684c0 5.28-3.258 6.438-6.363 6.774z"/>
        </g>
    </g>
</svg>
