<svg xmlns="http://www.w3.org/2000/svg" width="94" height="94" viewBox="0 0 94 94">
    <g id="prefix__yes" transform="translate(0 -.5)">
        <path id="prefix__Path_295" fill="#edba3b" d="M91.928 57.749A45.971 45.971 0 0 1 20.776 96.2C18.294 94.575 9.345 85.734 7.509 82.937a45.966 45.966 0 1 1 84.419-25.188zm0 0" data-name="Path 295" transform="translate(0 -9.213)"/>
        <path id="prefix__Path_297" fill="#0069a3" d="M81.869 285.956l-5.615-5.615a.322.322 0 0 1 0-.456l27.631-27.631 6.072 6.072-27.631 27.63a.324.324 0 0 1-.457 0zm0 0" data-name="Path 297" transform="translate(-62.178 -205.533)"/>
        <path id="prefix__Path_298" fill="#fe6466" d="M61.671 371.423a1.875 1.875 0 0 1-2.653 0l-.716-.716a5.607 5.607 0 0 1-1.639 3.668l-4.481 4.481a46.2 46.2 0 0 1-13.263-13.268l4.479-4.479a5.608 5.608 0 0 1 3.667-1.639l-.716-.716A1.876 1.876 0 0 1 49 356.1l12.671 12.67a1.875 1.875 0 0 1 0 2.653zm0 0" data-name="Path 298" transform="translate(-33.406 -289.866)"/>
        <path id="prefix__Path_299" fill="#fe393a" d="M53.2 360.312a1.876 1.876 0 0 0-2.653 0 1.829 1.829 0 0 0-.48 1.764 1.914 1.914 0 0 1-.475 1.845l-6.789 6.789a46.206 46.206 0 0 1-3.9-5.12l4.481-4.481a5.609 5.609 0 0 1 3.667-1.639l-.67-.67a1.919 1.919 0 0 1-.131-2.608 1.876 1.876 0 0 1 2.738-.091zm0 0" data-name="Path 299" transform="translate(-33.396 -289.865)"/>
        <path id="prefix__Path_300" fill="#3761db" d="M166.3 69.83a36.584 36.584 0 1 1 16.412-49.065A36.584 36.584 0 0 1 166.3 69.83zm0 0" data-name="Path 300" transform="translate(-92.567)"/>
        <path id="prefix__Path_301" fill="#5d7bd1" d="M188.957 115.245a36.585 36.585 0 0 1-38.985-4.009l-4.305 4.305a2.2 2.2 0 0 1-3.138-.029 2.247 2.247 0 0 1 .08-3.132l2.785-2.785a1.877 1.877 0 0 0 .062-2.588 36.281 36.281 0 0 1-2.619-3.267 36.588 36.588 0 0 1 64.682-32.257 36.592 36.592 0 0 1-18.562 43.762zm0 0" data-name="Path 301" transform="translate(-115.221 -45.414)"/>
        <path id="prefix__Path_302" fill="#97f0f2" d="M210.925 79.686a29.079 29.079 0 1 1-18.353-36.8 29.079 29.079 0 0 1 18.353 36.8zm0 0" data-name="Path 302" transform="translate(-125.939 -33.37)"/>
        <path id="prefix__Path_303" fill="#c0fbff" d="M174.128 110.088a29.089 29.089 0 0 1-19.67-30.9 36.578 36.578 0 0 1 43.626-21.756 29.082 29.082 0 0 1-23.956 52.654zm0 0" data-name="Path 303" transform="translate(-125.944 -45.419)"/>
        <path id="prefix__Path_305" fill="#ff895a" d="M346.528 196.235a2.814 2.814 0 0 1 0 3.98l-2.654 2.654.848.848a28.955 28.955 0 0 1-12.194 4.494 2.812 2.812 0 0 1 .733-2.689l2.654-2.653-2.654-2.654a2.814 2.814 0 1 1 3.98-3.98l2.654 2.654 2.653-2.654a2.815 2.815 0 0 1 3.98 0zm-2.654-14l2.654-2.653a2.814 2.814 0 0 0-3.98-3.98l-2.653 2.654-2.654-2.654a2.814 2.814 0 0 0-3.98 3.98l2.654 2.653-2.654 2.654a2.814 2.814 0 0 0 3.98 3.98l2.654-2.654 2.654 2.654a2.814 2.814 0 1 0 3.979-3.98zm0 0" data-name="Path 305" transform="translate(-271.404 -142.278)"/>
        <path id="prefix__Path_306" fill="#ff6466" d="M333.261 188l2.654-2.654-2.654-2.653a2.815 2.815 0 0 1 0-3.98c.044-.044.09-.082.136-.123a6.348 6.348 0 0 0 .653.765l4.664 4.664a1.875 1.875 0 0 1 0 2.653l-4.664 4.664a6.349 6.349 0 0 0-.653.765c-.046-.04-.092-.08-.136-.123a2.814 2.814 0 0 1 0-3.978zm.789 12a6.406 6.406 0 0 1-.653-.765c-.046.04-.092.079-.136.123a2.815 2.815 0 0 0 0 3.98l2.654 2.653-2.654 2.654a2.81 2.81 0 0 0-.733 2.689q1.322-.169 2.63-.459l3.556-3.556a1.875 1.875 0 0 0 0-2.653zm0 0" data-name="Path 306" transform="translate(-271.404 -145.397)"/>
        <path id="prefix__Path_307" fill="#02cc69" d="M342.719 66.659l-10.393 10.392a2.813 2.813 0 0 1-3.98 0l-5.306-5.306a2.814 2.814 0 0 1 3.98-3.98l3.316 3.316 8.4-8.4a2.814 2.814 0 0 1 3.98 3.98zm0 0" data-name="Path 307" transform="translate(-263.059 -50.091)"/>
        <path id="prefix__Path_308" fill="#54d680" d="M352.39 62.679a2.814 2.814 0 0 1 0 3.98l-8.219 8.219a2.815 2.815 0 0 1-3.98 0l-5.306-5.306a2.81 2.81 0 0 1-.762-2.57 2.811 2.811 0 0 1 2.569.763l3.316 3.316 8.4-8.4a2.814 2.814 0 0 1 3.982-.002zm0 0" data-name="Path 308" transform="translate(-272.73 -50.091)"/>
    </g>
</svg>
